<svg width="907" height="800" viewBox="0 0 907 800" fill="none" xmlns="http://www.w3.org/2000/svg">
<g filter="url(#filter0_ddddii_434_4405)">
<g clip-path="url(#clip0_434_4405)">
<rect x="177" y="177" width="606" height="416" rx="40" fill="white"/>
<line x1="175.5" y1="254.079" x2="784.5" y2="254.079" stroke="#121212" stroke-opacity="0.1"/>
<circle cx="211.125" cy="222.544" r="10" fill="#FD1919"/>
<circle cx="243.125" cy="222.544" r="10" fill="#FBC60D"/>
<circle cx="275.125" cy="222.544" r="10" fill="#95FB13"/>
<rect x="313.125" y="211.088" width="324.25" height="22.912" rx="11.456" fill="#121212" fill-opacity="0.1"/>
<rect x="665.375" y="211.088" width="93.5" height="22.912" rx="11.456" fill="#020024"/>
<rect x="348.5" y="272" width="128" height="96" rx="20.5" stroke="#121212" stroke-opacity="0.1" stroke-dasharray="5 5"/>
<path d="M365.602 289.598C365.602 290.41 365.322 291.087 364.762 291.628C364.211 292.16 363.367 292.426 362.228 292.426H360.352V296.5H359.078V286.742H362.228C363.329 286.742 364.165 287.008 364.734 287.54C365.313 288.072 365.602 288.758 365.602 289.598ZM362.228 291.376C362.937 291.376 363.46 291.222 363.796 290.914C364.132 290.606 364.3 290.167 364.3 289.598C364.3 288.394 363.609 287.792 362.228 287.792H360.352V291.376H362.228ZM367.269 292.636C367.269 291.852 367.428 291.166 367.745 290.578C368.063 289.981 368.497 289.519 369.047 289.192C369.607 288.865 370.228 288.702 370.909 288.702C371.581 288.702 372.165 288.847 372.659 289.136C373.154 289.425 373.523 289.789 373.765 290.228V288.828H375.053V296.5H373.765V295.072C373.513 295.52 373.135 295.893 372.631 296.192C372.137 296.481 371.558 296.626 370.895 296.626C370.214 296.626 369.598 296.458 369.047 296.122C368.497 295.786 368.063 295.315 367.745 294.708C367.428 294.101 367.269 293.411 367.269 292.636ZM373.765 292.65C373.765 292.071 373.649 291.567 373.415 291.138C373.182 290.709 372.865 290.382 372.463 290.158C372.071 289.925 371.637 289.808 371.161 289.808C370.685 289.808 370.251 289.92 369.859 290.144C369.467 290.368 369.155 290.695 368.921 291.124C368.688 291.553 368.571 292.057 368.571 292.636C368.571 293.224 368.688 293.737 368.921 294.176C369.155 294.605 369.467 294.937 369.859 295.17C370.251 295.394 370.685 295.506 371.161 295.506C371.637 295.506 372.071 295.394 372.463 295.17C372.865 294.937 373.182 294.605 373.415 294.176C373.649 293.737 373.765 293.229 373.765 292.65ZM379.32 289.878V294.4C379.32 294.773 379.4 295.039 379.558 295.198C379.717 295.347 379.992 295.422 380.384 295.422H381.322V296.5H380.174C379.465 296.5 378.933 296.337 378.578 296.01C378.224 295.683 378.046 295.147 378.046 294.4V289.878H377.052V288.828H378.046V286.896H379.32V288.828H381.322V289.878H379.32ZM384.084 287.582C383.841 287.582 383.636 287.498 383.468 287.33C383.3 287.162 383.216 286.957 383.216 286.714C383.216 286.471 383.3 286.266 383.468 286.098C383.636 285.93 383.841 285.846 384.084 285.846C384.317 285.846 384.513 285.93 384.672 286.098C384.84 286.266 384.924 286.471 384.924 286.714C384.924 286.957 384.84 287.162 384.672 287.33C384.513 287.498 384.317 287.582 384.084 287.582ZM384.7 288.828V296.5H383.426V288.828H384.7ZM394.431 292.37C394.431 292.613 394.417 292.869 394.389 293.14H388.257C388.304 293.896 388.561 294.489 389.027 294.918C389.503 295.338 390.077 295.548 390.749 295.548C391.3 295.548 391.757 295.422 392.121 295.17C392.495 294.909 392.756 294.563 392.905 294.134H394.277C394.072 294.871 393.661 295.473 393.045 295.94C392.429 296.397 391.664 296.626 390.749 296.626C390.021 296.626 389.368 296.463 388.789 296.136C388.22 295.809 387.772 295.347 387.445 294.75C387.119 294.143 386.955 293.443 386.955 292.65C386.955 291.857 387.114 291.161 387.431 290.564C387.749 289.967 388.192 289.509 388.761 289.192C389.34 288.865 390.003 288.702 390.749 288.702C391.477 288.702 392.121 288.861 392.681 289.178C393.241 289.495 393.671 289.934 393.969 290.494C394.277 291.045 394.431 291.67 394.431 292.37ZM393.115 292.104C393.115 291.619 393.008 291.203 392.793 290.858C392.579 290.503 392.285 290.237 391.911 290.06C391.547 289.873 391.141 289.78 390.693 289.78C390.049 289.78 389.499 289.985 389.041 290.396C388.593 290.807 388.337 291.376 388.271 292.104H393.115ZM400.411 288.688C401.344 288.688 402.1 288.973 402.679 289.542C403.258 290.102 403.547 290.914 403.547 291.978V296.5H402.287V292.16C402.287 291.395 402.096 290.811 401.713 290.41C401.33 289.999 400.808 289.794 400.145 289.794C399.473 289.794 398.936 290.004 398.535 290.424C398.143 290.844 397.947 291.455 397.947 292.258V296.5H396.673V288.828H397.947V289.92C398.199 289.528 398.54 289.225 398.969 289.01C399.408 288.795 399.888 288.688 400.411 288.688ZM407.742 289.878V294.4C407.742 294.773 407.821 295.039 407.98 295.198C408.139 295.347 408.414 295.422 408.806 295.422H409.744V296.5H408.596C407.887 296.5 407.355 296.337 407 296.01C406.645 295.683 406.468 295.147 406.468 294.4V289.878H405.474V288.828H406.468V286.896H407.742V288.828H409.744V289.878H407.742ZM414.564 296.626C413.976 296.626 413.448 296.528 412.982 296.332C412.515 296.127 412.146 295.847 411.876 295.492C411.605 295.128 411.456 294.713 411.428 294.246H412.744C412.781 294.629 412.958 294.941 413.276 295.184C413.602 295.427 414.027 295.548 414.55 295.548C415.035 295.548 415.418 295.441 415.698 295.226C415.978 295.011 416.118 294.741 416.118 294.414C416.118 294.078 415.968 293.831 415.67 293.672C415.371 293.504 414.909 293.341 414.284 293.182C413.714 293.033 413.248 292.883 412.884 292.734C412.529 292.575 412.221 292.347 411.96 292.048C411.708 291.74 411.582 291.339 411.582 290.844C411.582 290.452 411.698 290.093 411.932 289.766C412.165 289.439 412.496 289.183 412.926 288.996C413.355 288.8 413.845 288.702 414.396 288.702C415.245 288.702 415.931 288.917 416.454 289.346C416.976 289.775 417.256 290.363 417.294 291.11H416.02C415.992 290.709 415.828 290.387 415.53 290.144C415.24 289.901 414.848 289.78 414.354 289.78C413.896 289.78 413.532 289.878 413.262 290.074C412.991 290.27 412.856 290.527 412.856 290.844C412.856 291.096 412.935 291.306 413.094 291.474C413.262 291.633 413.467 291.763 413.71 291.866C413.962 291.959 414.307 292.067 414.746 292.188C415.296 292.337 415.744 292.487 416.09 292.636C416.435 292.776 416.729 292.991 416.972 293.28C417.224 293.569 417.354 293.947 417.364 294.414C417.364 294.834 417.247 295.212 417.014 295.548C416.78 295.884 416.449 296.15 416.02 296.346C415.6 296.533 415.114 296.626 414.564 296.626Z" fill="#121212"/>
<rect x="358" y="310.5" width="110" height="16" rx="5" fill="#121212" fill-opacity="0.1"/>
<path d="M361.01 348.13C361.085 348.541 361.253 348.858 361.514 349.082C361.785 349.297 362.144 349.404 362.592 349.404C363.171 349.404 363.591 349.166 363.852 348.69C364.113 348.205 364.244 347.393 364.244 346.254C364.029 346.553 363.726 346.786 363.334 346.954C362.951 347.122 362.536 347.206 362.088 347.206C361.491 347.206 360.949 347.085 360.464 346.842C359.988 346.59 359.61 346.221 359.33 345.736C359.05 345.241 358.91 344.644 358.91 343.944C358.91 342.908 359.218 342.087 359.834 341.48C360.45 340.864 361.29 340.556 362.354 340.556C363.679 340.556 364.613 340.981 365.154 341.83C365.705 342.679 365.98 343.958 365.98 345.666C365.98 346.879 365.873 347.873 365.658 348.648C365.453 349.423 365.093 350.011 364.58 350.412C364.076 350.813 363.385 351.014 362.508 351.014C361.817 351.014 361.229 350.883 360.744 350.622C360.259 350.351 359.885 350.001 359.624 349.572C359.372 349.133 359.227 348.653 359.19 348.13H361.01ZM362.494 345.61C362.979 345.61 363.362 345.461 363.642 345.162C363.922 344.863 364.062 344.462 364.062 343.958C364.062 343.407 363.913 342.983 363.614 342.684C363.325 342.376 362.928 342.222 362.424 342.222C361.92 342.222 361.519 342.381 361.22 342.698C360.931 343.006 360.786 343.417 360.786 343.93C360.786 344.425 360.926 344.831 361.206 345.148C361.495 345.456 361.925 345.61 362.494 345.61ZM373.358 343.342C373.264 342.95 373.101 342.656 372.868 342.46C372.644 342.264 372.317 342.166 371.888 342.166C371.244 342.166 370.768 342.427 370.46 342.95C370.161 343.463 370.007 344.303 369.998 345.47C370.222 345.097 370.548 344.807 370.978 344.602C371.407 344.387 371.874 344.28 372.378 344.28C372.984 344.28 373.521 344.411 373.988 344.672C374.454 344.933 374.818 345.316 375.08 345.82C375.341 346.315 375.472 346.912 375.472 347.612C375.472 348.275 375.336 348.867 375.066 349.39C374.804 349.903 374.417 350.305 373.904 350.594C373.39 350.883 372.779 351.028 372.07 351.028C371.099 351.028 370.334 350.813 369.774 350.384C369.223 349.955 368.836 349.357 368.612 348.592C368.397 347.817 368.29 346.865 368.29 345.736C368.29 344.028 368.584 342.74 369.172 341.872C369.76 340.995 370.688 340.556 371.958 340.556C372.938 340.556 373.698 340.822 374.24 341.354C374.781 341.886 375.094 342.549 375.178 343.342H373.358ZM371.93 345.89C371.435 345.89 371.02 346.035 370.684 346.324C370.348 346.613 370.18 347.033 370.18 347.584C370.18 348.135 370.334 348.569 370.642 348.886C370.959 349.203 371.402 349.362 371.972 349.362C372.476 349.362 372.872 349.208 373.162 348.9C373.46 348.592 373.61 348.177 373.61 347.654C373.61 347.113 373.465 346.683 373.176 346.366C372.896 346.049 372.48 345.89 371.93 345.89ZM384.077 342.278L380.353 351H378.365L382.117 342.502H377.329V340.822H384.077V342.278ZM385.811 345.764C385.811 344.149 386.1 342.885 386.679 341.97C387.267 341.055 388.237 340.598 389.591 340.598C390.944 340.598 391.91 341.055 392.489 341.97C393.077 342.885 393.371 344.149 393.371 345.764C393.371 347.388 393.077 348.662 392.489 349.586C391.91 350.51 390.944 350.972 389.591 350.972C388.237 350.972 387.267 350.51 386.679 349.586C386.1 348.662 385.811 347.388 385.811 345.764ZM391.439 345.764C391.439 345.073 391.392 344.495 391.299 344.028C391.215 343.552 391.037 343.165 390.767 342.866C390.505 342.567 390.113 342.418 389.591 342.418C389.068 342.418 388.671 342.567 388.401 342.866C388.139 343.165 387.962 343.552 387.869 344.028C387.785 344.495 387.743 345.073 387.743 345.764C387.743 346.473 387.785 347.071 387.869 347.556C387.953 348.032 388.13 348.419 388.401 348.718C388.671 349.007 389.068 349.152 389.591 349.152C390.113 349.152 390.51 349.007 390.781 348.718C391.051 348.419 391.229 348.032 391.313 347.556C391.397 347.071 391.439 346.473 391.439 345.764Z" fill="#121212"/>
<path d="M457.749 340L465.303 340.001L465.403 340.014L465.502 340.042L465.562 340.068C465.641 340.102 465.715 340.153 465.781 340.218L465.822 340.262L465.865 340.319L465.919 340.409L465.958 340.499L465.977 340.563L465.991 340.627L466 340.721L466 348.254C466 348.668 465.665 349.004 465.25 349.004C464.871 349.004 464.557 348.722 464.507 348.356L464.5 348.254L464.5 342.559L456.781 350.279C456.515 350.545 456.098 350.57 455.805 350.352L455.72 350.279L452.75 347.309L447.28 352.779C446.987 353.072 446.513 353.072 446.22 352.779C445.953 352.512 445.929 352.096 446.147 351.802L446.22 351.718L452.22 345.718C452.486 345.452 452.903 345.427 453.196 345.645L453.28 345.718L456.251 348.688L463.438 341.5H457.749C457.369 341.5 457.055 341.218 457.006 340.852L456.999 340.75C456.999 340.37 457.281 340.057 457.647 340.007L457.749 340Z" fill="#459912"/>
<rect x="491.5" y="272" width="128" height="96" rx="20.5" stroke="#121212" stroke-opacity="0.1"/>
<path d="M505.116 286.742C506.18 286.742 507.099 286.943 507.874 287.344C508.658 287.736 509.255 288.301 509.666 289.038C510.086 289.775 510.296 290.643 510.296 291.642C510.296 292.641 510.086 293.509 509.666 294.246C509.255 294.974 508.658 295.534 507.874 295.926C507.099 296.309 506.18 296.5 505.116 296.5H502.078V286.742H505.116ZM505.116 295.45C506.376 295.45 507.337 295.119 508 294.456C508.663 293.784 508.994 292.846 508.994 291.642C508.994 290.429 508.658 289.481 507.986 288.8C507.323 288.119 506.367 287.778 505.116 287.778H503.352V295.45H505.116ZM515.882 296.626C515.164 296.626 514.51 296.463 513.922 296.136C513.344 295.809 512.886 295.347 512.55 294.75C512.224 294.143 512.06 293.443 512.06 292.65C512.06 291.866 512.228 291.175 512.564 290.578C512.91 289.971 513.376 289.509 513.964 289.192C514.552 288.865 515.21 288.702 515.938 288.702C516.666 288.702 517.324 288.865 517.912 289.192C518.5 289.509 518.962 289.967 519.298 290.564C519.644 291.161 519.816 291.857 519.816 292.65C519.816 293.443 519.639 294.143 519.284 294.75C518.939 295.347 518.468 295.809 517.87 296.136C517.273 296.463 516.61 296.626 515.882 296.626ZM515.882 295.506C516.34 295.506 516.769 295.399 517.17 295.184C517.572 294.969 517.894 294.647 518.136 294.218C518.388 293.789 518.514 293.266 518.514 292.65C518.514 292.034 518.393 291.511 518.15 291.082C517.908 290.653 517.59 290.335 517.198 290.13C516.806 289.915 516.382 289.808 515.924 289.808C515.458 289.808 515.028 289.915 514.636 290.13C514.254 290.335 513.946 290.653 513.712 291.082C513.479 291.511 513.362 292.034 513.362 292.65C513.362 293.275 513.474 293.803 513.698 294.232C513.932 294.661 514.24 294.983 514.622 295.198C515.005 295.403 515.425 295.506 515.882 295.506ZM521.576 292.65C521.576 291.857 521.734 291.166 522.052 290.578C522.369 289.981 522.808 289.519 523.368 289.192C523.937 288.865 524.586 288.702 525.314 288.702C526.256 288.702 527.031 288.931 527.638 289.388C528.254 289.845 528.66 290.48 528.856 291.292H527.484C527.353 290.825 527.096 290.457 526.714 290.186C526.34 289.915 525.874 289.78 525.314 289.78C524.586 289.78 523.998 290.032 523.55 290.536C523.102 291.031 522.878 291.735 522.878 292.65C522.878 293.574 523.102 294.288 523.55 294.792C523.998 295.296 524.586 295.548 525.314 295.548C525.874 295.548 526.34 295.417 526.714 295.156C527.087 294.895 527.344 294.521 527.484 294.036H528.856C528.65 294.82 528.24 295.45 527.624 295.926C527.008 296.393 526.238 296.626 525.314 296.626C524.586 296.626 523.937 296.463 523.368 296.136C522.808 295.809 522.369 295.347 522.052 294.75C521.734 294.153 521.576 293.453 521.576 292.65ZM532.669 289.878V294.4C532.669 294.773 532.749 295.039 532.907 295.198C533.066 295.347 533.341 295.422 533.733 295.422H534.671V296.5H533.523C532.814 296.5 532.282 296.337 531.927 296.01C531.573 295.683 531.395 295.147 531.395 294.4V289.878H530.401V288.828H531.395V286.896H532.669V288.828H534.671V289.878H532.669ZM540.121 296.626C539.402 296.626 538.749 296.463 538.161 296.136C537.582 295.809 537.125 295.347 536.789 294.75C536.462 294.143 536.299 293.443 536.299 292.65C536.299 291.866 536.467 291.175 536.803 290.578C537.148 289.971 537.615 289.509 538.203 289.192C538.791 288.865 539.449 288.702 540.177 288.702C540.905 288.702 541.563 288.865 542.151 289.192C542.739 289.509 543.201 289.967 543.537 290.564C543.882 291.161 544.055 291.857 544.055 292.65C544.055 293.443 543.878 294.143 543.523 294.75C543.178 295.347 542.706 295.809 542.109 296.136C541.512 296.463 540.849 296.626 540.121 296.626ZM540.121 295.506C540.578 295.506 541.008 295.399 541.409 295.184C541.81 294.969 542.132 294.647 542.375 294.218C542.627 293.789 542.753 293.266 542.753 292.65C542.753 292.034 542.632 291.511 542.389 291.082C542.146 290.653 541.829 290.335 541.437 290.13C541.045 289.915 540.62 289.808 540.163 289.808C539.696 289.808 539.267 289.915 538.875 290.13C538.492 290.335 538.184 290.653 537.951 291.082C537.718 291.511 537.601 292.034 537.601 292.65C537.601 293.275 537.713 293.803 537.937 294.232C538.17 294.661 538.478 294.983 538.861 295.198C539.244 295.403 539.664 295.506 540.121 295.506ZM547.564 290.074C547.788 289.635 548.105 289.295 548.516 289.052C548.936 288.809 549.445 288.688 550.042 288.688V290.004H549.706C548.278 290.004 547.564 290.779 547.564 292.328V296.5H546.29V288.828H547.564V290.074ZM554.789 296.626C554.201 296.626 553.673 296.528 553.207 296.332C552.74 296.127 552.371 295.847 552.101 295.492C551.83 295.128 551.681 294.713 551.653 294.246H552.969C553.006 294.629 553.183 294.941 553.501 295.184C553.827 295.427 554.252 295.548 554.775 295.548C555.26 295.548 555.643 295.441 555.923 295.226C556.203 295.011 556.343 294.741 556.343 294.414C556.343 294.078 556.193 293.831 555.895 293.672C555.596 293.504 555.134 293.341 554.509 293.182C553.939 293.033 553.473 292.883 553.109 292.734C552.754 292.575 552.446 292.347 552.185 292.048C551.933 291.74 551.807 291.339 551.807 290.844C551.807 290.452 551.923 290.093 552.157 289.766C552.39 289.439 552.721 289.183 553.151 288.996C553.58 288.8 554.07 288.702 554.621 288.702C555.47 288.702 556.156 288.917 556.679 289.346C557.201 289.775 557.481 290.363 557.519 291.11H556.245C556.217 290.709 556.053 290.387 555.755 290.144C555.465 289.901 555.073 289.78 554.579 289.78C554.121 289.78 553.757 289.878 553.487 290.074C553.216 290.27 553.081 290.527 553.081 290.844C553.081 291.096 553.16 291.306 553.319 291.474C553.487 291.633 553.692 291.763 553.935 291.866C554.187 291.959 554.532 292.067 554.971 292.188C555.521 292.337 555.969 292.487 556.315 292.636C556.66 292.776 556.954 292.991 557.197 293.28C557.449 293.569 557.579 293.947 557.589 294.414C557.589 294.834 557.472 295.212 557.239 295.548C557.005 295.884 556.674 296.15 556.245 296.346C555.825 296.533 555.339 296.626 554.789 296.626Z" fill="#121212"/>
<rect x="501" y="310.5" width="110" height="16" rx="5" fill="#121212" fill-opacity="0.1"/>
<path d="M501.504 342.6V340.794H504.878V351H502.862V342.6H501.504ZM507.99 348.788C508.886 348.041 509.6 347.421 510.132 346.926C510.664 346.422 511.108 345.899 511.462 345.358C511.817 344.817 511.994 344.285 511.994 343.762C511.994 343.286 511.882 342.913 511.658 342.642C511.434 342.371 511.089 342.236 510.622 342.236C510.156 342.236 509.796 342.395 509.544 342.712C509.292 343.02 509.162 343.445 509.152 343.986H507.248C507.286 342.866 507.617 342.017 508.242 341.438C508.877 340.859 509.68 340.57 510.65 340.57C511.714 340.57 512.531 340.855 513.1 341.424C513.67 341.984 513.954 342.726 513.954 343.65C513.954 344.378 513.758 345.073 513.366 345.736C512.974 346.399 512.526 346.977 512.022 347.472C511.518 347.957 510.86 348.545 510.048 349.236H514.178V350.86H507.262V349.404L507.99 348.788ZM522.469 342.278L518.745 351H516.757L520.509 342.502H515.721V340.822H522.469V342.278ZM524.119 349.012V347.472L528.697 340.92H530.979V347.304H532.211V349.012H530.979V351H529.019V349.012H524.119ZM529.145 343.02L526.275 347.304H529.145V343.02Z" fill="#121212"/>
<path d="M600.749 353L608.303 353L608.403 352.986L608.502 352.958L608.562 352.933C608.641 352.898 608.715 352.847 608.781 352.782L608.822 352.738L608.865 352.681L608.919 352.591L608.958 352.501L608.977 352.437L608.991 352.373L609 352.279L609 344.746C609 344.332 608.665 343.996 608.25 343.996C607.871 343.996 607.557 344.278 607.507 344.645L607.5 344.746L607.5 350.441L599.781 342.721C599.515 342.455 599.098 342.43 598.805 342.648L598.72 342.721L595.75 345.691L590.28 340.222C589.987 339.929 589.513 339.929 589.22 340.222C588.953 340.488 588.929 340.905 589.147 341.198L589.22 341.282L595.22 347.282C595.486 347.549 595.903 347.573 596.196 347.355L596.28 347.282L599.251 344.312L606.438 351.5H600.749C600.369 351.5 600.055 351.782 600.006 352.149L599.999 352.25C599.999 352.63 600.281 352.944 600.647 352.993L600.749 353Z" fill="#FD1919"/>
<rect x="634.5" y="272" width="128" height="96" rx="20.5" stroke="#121212" stroke-opacity="0.1"/>
<path d="M652.75 296.5H651.476L646.352 288.73V296.5H645.078V286.728H646.352L651.476 294.484V286.728H652.75V296.5ZM662.286 288.828V296.5H661.012V295.366C660.769 295.758 660.428 296.066 659.99 296.29C659.56 296.505 659.084 296.612 658.562 296.612C657.964 296.612 657.428 296.491 656.952 296.248C656.476 295.996 656.098 295.623 655.818 295.128C655.547 294.633 655.412 294.031 655.412 293.322V288.828H656.672V293.154C656.672 293.91 656.863 294.493 657.246 294.904C657.628 295.305 658.151 295.506 658.814 295.506C659.495 295.506 660.032 295.296 660.424 294.876C660.816 294.456 661.012 293.845 661.012 293.042V288.828H662.286ZM666.271 290.074C666.495 289.635 666.812 289.295 667.223 289.052C667.643 288.809 668.151 288.688 668.749 288.688V290.004H668.413C666.985 290.004 666.271 290.779 666.271 292.328V296.5H664.997V288.828H666.271V290.074ZM673.495 296.626C672.907 296.626 672.38 296.528 671.913 296.332C671.447 296.127 671.078 295.847 670.807 295.492C670.537 295.128 670.387 294.713 670.359 294.246H671.675C671.713 294.629 671.89 294.941 672.207 295.184C672.534 295.427 672.959 295.548 673.481 295.548C673.967 295.548 674.349 295.441 674.629 295.226C674.909 295.011 675.049 294.741 675.049 294.414C675.049 294.078 674.9 293.831 674.601 293.672C674.303 293.504 673.841 293.341 673.215 293.182C672.646 293.033 672.179 292.883 671.815 292.734C671.461 292.575 671.153 292.347 670.891 292.048C670.639 291.74 670.513 291.339 670.513 290.844C670.513 290.452 670.63 290.093 670.863 289.766C671.097 289.439 671.428 289.183 671.857 288.996C672.287 288.8 672.777 288.702 673.327 288.702C674.177 288.702 674.863 288.917 675.385 289.346C675.908 289.775 676.188 290.363 676.225 291.11H674.951C674.923 290.709 674.76 290.387 674.461 290.144C674.172 289.901 673.78 289.78 673.285 289.78C672.828 289.78 672.464 289.878 672.193 290.074C671.923 290.27 671.787 290.527 671.787 290.844C671.787 291.096 671.867 291.306 672.025 291.474C672.193 291.633 672.399 291.763 672.641 291.866C672.893 291.959 673.239 292.067 673.677 292.188C674.228 292.337 674.676 292.487 675.021 292.636C675.367 292.776 675.661 292.991 675.903 293.28C676.155 293.569 676.286 293.947 676.295 294.414C676.295 294.834 676.179 295.212 675.945 295.548C675.712 295.884 675.381 296.15 674.951 296.346C674.531 296.533 674.046 296.626 673.495 296.626ZM685.654 292.37C685.654 292.613 685.64 292.869 685.612 293.14H679.48C679.527 293.896 679.783 294.489 680.25 294.918C680.726 295.338 681.3 295.548 681.972 295.548C682.523 295.548 682.98 295.422 683.344 295.17C683.717 294.909 683.979 294.563 684.128 294.134H685.5C685.295 294.871 684.884 295.473 684.268 295.94C683.652 296.397 682.887 296.626 681.972 296.626C681.244 296.626 680.591 296.463 680.012 296.136C679.443 295.809 678.995 295.347 678.668 294.75C678.341 294.143 678.178 293.443 678.178 292.65C678.178 291.857 678.337 291.161 678.654 290.564C678.971 289.967 679.415 289.509 679.984 289.192C680.563 288.865 681.225 288.702 681.972 288.702C682.7 288.702 683.344 288.861 683.904 289.178C684.464 289.495 684.893 289.934 685.192 290.494C685.5 291.045 685.654 291.67 685.654 292.37ZM684.338 292.104C684.338 291.619 684.231 291.203 684.016 290.858C683.801 290.503 683.507 290.237 683.134 290.06C682.77 289.873 682.364 289.78 681.916 289.78C681.272 289.78 680.721 289.985 680.264 290.396C679.816 290.807 679.559 291.376 679.494 292.104H684.338ZM690.612 296.626C690.024 296.626 689.496 296.528 689.03 296.332C688.563 296.127 688.194 295.847 687.924 295.492C687.653 295.128 687.504 294.713 687.476 294.246H688.792C688.829 294.629 689.006 294.941 689.324 295.184C689.65 295.427 690.075 295.548 690.598 295.548C691.083 295.548 691.466 295.441 691.746 295.226C692.026 295.011 692.166 294.741 692.166 294.414C692.166 294.078 692.016 293.831 691.718 293.672C691.419 293.504 690.957 293.341 690.332 293.182C689.762 293.033 689.296 292.883 688.932 292.734C688.577 292.575 688.269 292.347 688.008 292.048C687.756 291.74 687.63 291.339 687.63 290.844C687.63 290.452 687.746 290.093 687.98 289.766C688.213 289.439 688.544 289.183 688.974 288.996C689.403 288.8 689.893 288.702 690.444 288.702C691.293 288.702 691.979 288.917 692.502 289.346C693.024 289.775 693.304 290.363 693.342 291.11H692.068C692.04 290.709 691.876 290.387 691.578 290.144C691.288 289.901 690.896 289.78 690.402 289.78C689.944 289.78 689.58 289.878 689.31 290.074C689.039 290.27 688.904 290.527 688.904 290.844C688.904 291.096 688.983 291.306 689.142 291.474C689.31 291.633 689.515 291.763 689.758 291.866C690.01 291.959 690.355 292.067 690.794 292.188C691.344 292.337 691.792 292.487 692.138 292.636C692.483 292.776 692.777 292.991 693.02 293.28C693.272 293.569 693.402 293.947 693.412 294.414C693.412 294.834 693.295 295.212 693.062 295.548C692.828 295.884 692.497 296.15 692.068 296.346C691.648 296.533 691.162 296.626 690.612 296.626Z" fill="#121212"/>
<rect x="644" y="310.5" width="110" height="16" rx="5" fill="#121212" fill-opacity="0.1"/>
<path d="M644.504 342.6V340.794H647.878V351H645.862V342.6H644.504ZM655.666 343.342C655.573 342.95 655.41 342.656 655.176 342.46C654.952 342.264 654.626 342.166 654.196 342.166C653.552 342.166 653.076 342.427 652.768 342.95C652.47 343.463 652.316 344.303 652.306 345.47C652.53 345.097 652.857 344.807 653.286 344.602C653.716 344.387 654.182 344.28 654.686 344.28C655.293 344.28 655.83 344.411 656.296 344.672C656.763 344.933 657.127 345.316 657.388 345.82C657.65 346.315 657.78 346.912 657.78 347.612C657.78 348.275 657.645 348.867 657.374 349.39C657.113 349.903 656.726 350.305 656.212 350.594C655.699 350.883 655.088 351.028 654.378 351.028C653.408 351.028 652.642 350.813 652.082 350.384C651.532 349.955 651.144 349.357 650.92 348.592C650.706 347.817 650.598 346.865 650.598 345.736C650.598 344.028 650.892 342.74 651.48 341.872C652.068 340.995 652.997 340.556 654.266 340.556C655.246 340.556 656.007 340.822 656.548 341.354C657.09 341.886 657.402 342.549 657.486 343.342H655.666ZM654.238 345.89C653.744 345.89 653.328 346.035 652.992 346.324C652.656 346.613 652.488 347.033 652.488 347.584C652.488 348.135 652.642 348.569 652.95 348.886C653.268 349.203 653.711 349.362 654.28 349.362C654.784 349.362 655.181 349.208 655.47 348.9C655.769 348.592 655.918 348.177 655.918 347.654C655.918 347.113 655.774 346.683 655.484 346.366C655.204 346.049 654.789 345.89 654.238 345.89ZM662.157 348.13C662.232 348.541 662.4 348.858 662.661 349.082C662.932 349.297 663.291 349.404 663.739 349.404C664.318 349.404 664.738 349.166 664.999 348.69C665.261 348.205 665.391 347.393 665.391 346.254C665.177 346.553 664.873 346.786 664.481 346.954C664.099 347.122 663.683 347.206 663.235 347.206C662.638 347.206 662.097 347.085 661.611 346.842C661.135 346.59 660.757 346.221 660.477 345.736C660.197 345.241 660.057 344.644 660.057 343.944C660.057 342.908 660.365 342.087 660.981 341.48C661.597 340.864 662.437 340.556 663.501 340.556C664.827 340.556 665.76 340.981 666.301 341.83C666.852 342.679 667.127 343.958 667.127 345.666C667.127 346.879 667.02 347.873 666.805 348.648C666.6 349.423 666.241 350.011 665.727 350.412C665.223 350.813 664.533 351.014 663.655 351.014C662.965 351.014 662.377 350.883 661.891 350.622C661.406 350.351 661.033 350.001 660.771 349.572C660.519 349.133 660.375 348.653 660.337 348.13H662.157ZM663.641 345.61C664.127 345.61 664.509 345.461 664.789 345.162C665.069 344.863 665.209 344.462 665.209 343.958C665.209 343.407 665.06 342.983 664.761 342.684C664.472 342.376 664.075 342.222 663.571 342.222C663.067 342.222 662.666 342.381 662.367 342.698C662.078 343.006 661.933 343.417 661.933 343.93C661.933 344.425 662.073 344.831 662.353 345.148C662.643 345.456 663.072 345.61 663.641 345.61ZM669.213 345.764C669.213 344.149 669.502 342.885 670.081 341.97C670.669 341.055 671.64 340.598 672.993 340.598C674.346 340.598 675.312 341.055 675.891 341.97C676.479 342.885 676.773 344.149 676.773 345.764C676.773 347.388 676.479 348.662 675.891 349.586C675.312 350.51 674.346 350.972 672.993 350.972C671.64 350.972 670.669 350.51 670.081 349.586C669.502 348.662 669.213 347.388 669.213 345.764ZM674.841 345.764C674.841 345.073 674.794 344.495 674.701 344.028C674.617 343.552 674.44 343.165 674.169 342.866C673.908 342.567 673.516 342.418 672.993 342.418C672.47 342.418 672.074 342.567 671.803 342.866C671.542 343.165 671.364 343.552 671.271 344.028C671.187 344.495 671.145 345.073 671.145 345.764C671.145 346.473 671.187 347.071 671.271 347.556C671.355 348.032 671.532 348.419 671.803 348.718C672.074 349.007 672.47 349.152 672.993 349.152C673.516 349.152 673.912 349.007 674.183 348.718C674.454 348.419 674.631 348.032 674.715 347.556C674.799 347.071 674.841 346.473 674.841 345.764ZM680.532 345.596C679.598 345.111 679.132 344.359 679.132 343.342C679.132 342.838 679.258 342.381 679.51 341.97C679.771 341.55 680.158 341.219 680.672 340.976C681.194 340.724 681.829 340.598 682.576 340.598C683.322 340.598 683.952 340.724 684.466 340.976C684.988 341.219 685.376 341.55 685.628 341.97C685.889 342.381 686.02 342.838 686.02 343.342C686.02 343.855 685.894 344.308 685.642 344.7C685.39 345.083 685.054 345.381 684.634 345.596C685.147 345.82 685.548 346.147 685.838 346.576C686.127 347.005 686.272 347.514 686.272 348.102C686.272 348.737 686.108 349.292 685.782 349.768C685.464 350.235 685.026 350.594 684.466 350.846C683.906 351.098 683.276 351.224 682.576 351.224C681.876 351.224 681.246 351.098 680.686 350.846C680.135 350.594 679.696 350.235 679.37 349.768C679.052 349.292 678.894 348.737 678.894 348.102C678.894 347.514 679.038 347.005 679.328 346.576C679.617 346.137 680.018 345.811 680.532 345.596ZM684.116 343.622C684.116 343.165 683.976 342.81 683.696 342.558C683.425 342.306 683.052 342.18 682.576 342.18C682.109 342.18 681.736 342.306 681.456 342.558C681.185 342.81 681.05 343.169 681.05 343.636C681.05 344.056 681.19 344.392 681.47 344.644C681.759 344.896 682.128 345.022 682.576 345.022C683.024 345.022 683.392 344.896 683.682 344.644C683.971 344.383 684.116 344.042 684.116 343.622ZM682.576 346.45C682.044 346.45 681.61 346.585 681.274 346.856C680.947 347.127 680.784 347.514 680.784 348.018C680.784 348.485 680.942 348.867 681.26 349.166C681.586 349.455 682.025 349.6 682.576 349.6C683.126 349.6 683.56 349.451 683.878 349.152C684.195 348.853 684.354 348.475 684.354 348.018C684.354 347.523 684.19 347.141 683.864 346.87C683.537 346.59 683.108 346.45 682.576 346.45Z" fill="#121212"/>
<path d="M743.749 340L751.303 340.001L751.403 340.014L751.502 340.042L751.562 340.068C751.641 340.102 751.715 340.153 751.781 340.218L751.822 340.262L751.865 340.319L751.919 340.409L751.958 340.499L751.977 340.563L751.991 340.627L752 340.721L752 348.254C752 348.668 751.665 349.004 751.25 349.004C750.871 349.004 750.557 348.722 750.507 348.356L750.5 348.254L750.5 342.559L742.781 350.279C742.515 350.545 742.098 350.57 741.805 350.352L741.72 350.279L738.75 347.309L733.28 352.779C732.987 353.072 732.513 353.072 732.22 352.779C731.953 352.512 731.929 352.096 732.147 351.802L732.22 351.718L738.22 345.718C738.486 345.452 738.903 345.427 739.196 345.645L739.28 345.718L742.251 348.688L749.438 341.5H743.749C743.369 341.5 743.055 341.218 743.006 340.852L742.999 340.75C742.999 340.37 743.281 340.057 743.647 340.007L743.749 340Z" fill="#459912"/>
<rect x="175.5" y="255.082" width="149.5" height="337.918" fill="#020024"/>
<circle cx="195.75" cy="286" r="8" fill="white" fill-opacity="0.5"/>
<rect x="210.75" y="278" width="102" height="16" rx="5" fill="white" fill-opacity="0.5"/>
<circle cx="195.75" cy="318" r="8" fill="white" fill-opacity="0.5"/>
<rect x="210.75" y="310" width="102" height="16" rx="5" fill="white" fill-opacity="0.5"/>
<circle cx="195.75" cy="350" r="8" fill="white" fill-opacity="0.5"/>
<rect x="210.75" y="342" width="102" height="16" rx="5" fill="white" fill-opacity="0.5"/>
<circle cx="576.875" cy="397.079" r="4" fill="#020024"/>
<path d="M594.246 392.715V401.079H593.154V397.287H588.894V401.079H587.802V392.715H588.894V396.387H593.154V392.715H594.246ZM599.458 401.187C598.842 401.187 598.282 401.047 597.778 400.767C597.282 400.487 596.89 400.091 596.602 399.579C596.322 399.059 596.182 398.459 596.182 397.779C596.182 397.107 596.326 396.515 596.614 396.003C596.91 395.483 597.31 395.087 597.814 394.815C598.318 394.535 598.882 394.395 599.506 394.395C600.13 394.395 600.694 394.535 601.198 394.815C601.702 395.087 602.098 395.479 602.386 395.991C602.682 396.503 602.83 397.099 602.83 397.779C602.83 398.459 602.678 399.059 602.374 399.579C602.078 400.091 601.674 400.487 601.162 400.767C600.65 401.047 600.082 401.187 599.458 401.187ZM599.458 400.227C599.85 400.227 600.218 400.135 600.562 399.951C600.906 399.767 601.182 399.491 601.39 399.123C601.606 398.755 601.714 398.307 601.714 397.779C601.714 397.251 601.61 396.803 601.402 396.435C601.194 396.067 600.922 395.795 600.586 395.619C600.25 395.435 599.886 395.343 599.494 395.343C599.094 395.343 598.726 395.435 598.39 395.619C598.062 395.795 597.798 396.067 597.598 396.435C597.398 396.803 597.298 397.251 597.298 397.779C597.298 398.315 597.394 398.767 597.586 399.135C597.786 399.503 598.05 399.779 598.378 399.963C598.706 400.139 599.066 400.227 599.458 400.227ZM607.074 401.187C606.57 401.187 606.118 401.103 605.718 400.935C605.318 400.759 605.002 400.519 604.77 400.215C604.538 399.903 604.41 399.547 604.386 399.147H605.514C605.546 399.475 605.698 399.743 605.97 399.951C606.25 400.159 606.614 400.263 607.062 400.263C607.478 400.263 607.806 400.171 608.046 399.987C608.286 399.803 608.406 399.571 608.406 399.291C608.406 399.003 608.278 398.791 608.022 398.655C607.766 398.511 607.37 398.371 606.834 398.235C606.346 398.107 605.946 397.979 605.634 397.851C605.33 397.715 605.066 397.519 604.842 397.263C604.626 396.999 604.518 396.655 604.518 396.231C604.518 395.895 604.618 395.587 604.818 395.307C605.018 395.027 605.302 394.807 605.67 394.647C606.038 394.479 606.458 394.395 606.93 394.395C607.658 394.395 608.246 394.579 608.694 394.947C609.142 395.315 609.382 395.819 609.414 396.459H608.322C608.298 396.115 608.158 395.839 607.902 395.631C607.654 395.423 607.318 395.319 606.894 395.319C606.502 395.319 606.19 395.403 605.958 395.571C605.726 395.739 605.61 395.959 605.61 396.231C605.61 396.447 605.678 396.627 605.814 396.771C605.958 396.907 606.134 397.019 606.342 397.107C606.558 397.187 606.854 397.279 607.23 397.383C607.702 397.511 608.086 397.639 608.382 397.767C608.678 397.887 608.93 398.071 609.138 398.319C609.354 398.567 609.466 398.891 609.474 399.291C609.474 399.651 609.374 399.975 609.174 400.263C608.974 400.551 608.69 400.779 608.322 400.947C607.962 401.107 607.546 401.187 607.074 401.187ZM612.587 395.715C612.803 395.339 613.123 395.027 613.547 394.779C613.979 394.523 614.479 394.395 615.047 394.395C615.631 394.395 616.159 394.535 616.631 394.815C617.111 395.095 617.487 395.491 617.759 396.003C618.031 396.507 618.167 397.095 618.167 397.767C618.167 398.431 618.031 399.023 617.759 399.543C617.487 400.063 617.111 400.467 616.631 400.755C616.159 401.043 615.631 401.187 615.047 401.187C614.487 401.187 613.991 401.063 613.559 400.815C613.135 400.559 612.811 400.243 612.587 399.867V404.199H611.495V394.503H612.587V395.715ZM617.051 397.767C617.051 397.271 616.951 396.839 616.751 396.471C616.551 396.103 616.279 395.823 615.935 395.631C615.599 395.439 615.227 395.343 614.819 395.343C614.419 395.343 614.047 395.443 613.703 395.643C613.367 395.835 613.095 396.119 612.887 396.495C612.687 396.863 612.587 397.291 612.587 397.779C612.587 398.275 612.687 398.711 612.887 399.087C613.095 399.455 613.367 399.739 613.703 399.939C614.047 400.131 614.419 400.227 614.819 400.227C615.227 400.227 615.599 400.131 615.935 399.939C616.279 399.739 616.551 399.455 616.751 399.087C616.951 398.711 617.051 398.271 617.051 397.767ZM620.649 393.435C620.441 393.435 620.265 393.363 620.121 393.219C619.977 393.075 619.905 392.899 619.905 392.691C619.905 392.483 619.977 392.307 620.121 392.163C620.265 392.019 620.441 391.947 620.649 391.947C620.849 391.947 621.017 392.019 621.153 392.163C621.297 392.307 621.369 392.483 621.369 392.691C621.369 392.899 621.297 393.075 621.153 393.219C621.017 393.363 620.849 393.435 620.649 393.435ZM621.177 394.503V401.079H620.085V394.503H621.177ZM624.85 395.403V399.279C624.85 399.599 624.918 399.827 625.054 399.963C625.19 400.091 625.426 400.155 625.762 400.155H626.566V401.079H625.582C624.974 401.079 624.518 400.939 624.214 400.659C623.91 400.379 623.758 399.919 623.758 399.279V395.403H622.906V394.503H623.758V392.847H624.85V394.503H626.566V395.403H624.85ZM627.961 397.767C627.961 397.095 628.097 396.507 628.369 396.003C628.641 395.491 629.013 395.095 629.485 394.815C629.965 394.535 630.497 394.395 631.081 394.395C631.657 394.395 632.157 394.519 632.581 394.767C633.005 395.015 633.321 395.327 633.529 395.703V394.503H634.633V401.079H633.529V399.855C633.313 400.239 632.989 400.559 632.557 400.815C632.133 401.063 631.637 401.187 631.069 401.187C630.485 401.187 629.957 401.043 629.485 400.755C629.013 400.467 628.641 400.063 628.369 399.543C628.097 399.023 627.961 398.431 627.961 397.767ZM633.529 397.779C633.529 397.283 633.429 396.851 633.229 396.483C633.029 396.115 632.757 395.835 632.413 395.643C632.077 395.443 631.705 395.343 631.297 395.343C630.889 395.343 630.517 395.439 630.181 395.631C629.845 395.823 629.577 396.103 629.377 396.471C629.177 396.839 629.077 397.271 629.077 397.767C629.077 398.271 629.177 398.711 629.377 399.087C629.577 399.455 629.845 399.739 630.181 399.939C630.517 400.131 630.889 400.227 631.297 400.227C631.705 400.227 632.077 400.131 632.413 399.939C632.757 399.739 633.029 399.455 633.229 399.087C633.429 398.711 633.529 398.275 633.529 397.779ZM638.05 392.199V401.079H636.958V392.199H638.05ZM640.956 393.435C640.748 393.435 640.572 393.363 640.428 393.219C640.284 393.075 640.212 392.899 640.212 392.691C640.212 392.483 640.284 392.307 640.428 392.163C640.572 392.019 640.748 391.947 640.956 391.947C641.156 391.947 641.324 392.019 641.46 392.163C641.604 392.307 641.676 392.483 641.676 392.691C641.676 392.899 641.604 393.075 641.46 393.219C641.324 393.363 641.156 393.435 640.956 393.435ZM641.484 394.503V401.079H640.392V394.503H641.484ZM644.641 400.179H647.869V401.079H643.393V400.179L646.585 395.391H643.417V394.503H647.845V395.391L644.641 400.179ZM655.766 397.539C655.766 397.747 655.754 397.967 655.73 398.199H650.474C650.514 398.847 650.734 399.355 651.134 399.723C651.542 400.083 652.034 400.263 652.61 400.263C653.082 400.263 653.474 400.155 653.786 399.939C654.106 399.715 654.33 399.419 654.458 399.051H655.634C655.458 399.683 655.106 400.199 654.578 400.599C654.05 400.991 653.394 401.187 652.61 401.187C651.986 401.187 651.426 401.047 650.93 400.767C650.442 400.487 650.058 400.091 649.778 399.579C649.498 399.059 649.358 398.459 649.358 397.779C649.358 397.099 649.494 396.503 649.766 395.991C650.038 395.479 650.418 395.087 650.906 394.815C651.402 394.535 651.97 394.395 652.61 394.395C653.234 394.395 653.786 394.531 654.266 394.803C654.746 395.075 655.114 395.451 655.37 395.931C655.634 396.403 655.766 396.939 655.766 397.539ZM654.638 397.311C654.638 396.895 654.546 396.539 654.362 396.243C654.178 395.939 653.926 395.711 653.606 395.559C653.294 395.399 652.946 395.319 652.562 395.319C652.01 395.319 651.538 395.495 651.146 395.847C650.762 396.199 650.542 396.687 650.486 397.311H654.638ZM657.279 397.767C657.279 397.095 657.415 396.507 657.687 396.003C657.959 395.491 658.331 395.095 658.803 394.815C659.283 394.535 659.819 394.395 660.411 394.395C660.923 394.395 661.399 394.515 661.839 394.755C662.279 394.987 662.615 395.295 662.847 395.679V392.199H663.951V401.079H662.847V399.843C662.631 400.235 662.311 400.559 661.887 400.815C661.463 401.063 660.967 401.187 660.399 401.187C659.815 401.187 659.283 401.043 658.803 400.755C658.331 400.467 657.959 400.063 657.687 399.543C657.415 399.023 657.279 398.431 657.279 397.767ZM662.847 397.779C662.847 397.283 662.747 396.851 662.547 396.483C662.347 396.115 662.075 395.835 661.731 395.643C661.395 395.443 661.023 395.343 660.615 395.343C660.207 395.343 659.835 395.439 659.499 395.631C659.163 395.823 658.895 396.103 658.695 396.471C658.495 396.839 658.395 397.271 658.395 397.767C658.395 398.271 658.495 398.711 658.695 399.087C658.895 399.455 659.163 399.739 659.499 399.939C659.835 400.131 660.207 400.227 660.615 400.227C661.023 400.227 661.395 400.131 661.731 399.939C662.075 399.739 662.347 399.455 662.547 399.087C662.747 398.711 662.847 398.275 662.847 397.779Z" fill="#121212"/>
<circle cx="680.875" cy="397.079" r="4" fill="#00C6C3"/>
<path d="M696.332 401.079L694.34 397.659H693.02V401.079H691.928V392.715H694.628C695.26 392.715 695.792 392.823 696.224 393.039C696.664 393.255 696.992 393.547 697.208 393.915C697.424 394.283 697.532 394.703 697.532 395.175C697.532 395.751 697.364 396.259 697.028 396.699C696.7 397.139 696.204 397.431 695.54 397.575L697.64 401.079H696.332ZM693.02 396.783H694.628C695.22 396.783 695.664 396.639 695.96 396.351C696.256 396.055 696.404 395.663 696.404 395.175C696.404 394.679 696.256 394.295 695.96 394.023C695.672 393.751 695.228 393.615 694.628 393.615H693.02V396.783ZM705.709 397.539C705.709 397.747 705.697 397.967 705.673 398.199H700.417C700.457 398.847 700.677 399.355 701.077 399.723C701.485 400.083 701.977 400.263 702.553 400.263C703.025 400.263 703.417 400.155 703.729 399.939C704.049 399.715 704.273 399.419 704.401 399.051H705.577C705.401 399.683 705.049 400.199 704.521 400.599C703.993 400.991 703.337 401.187 702.553 401.187C701.929 401.187 701.369 401.047 700.873 400.767C700.385 400.487 700.001 400.091 699.721 399.579C699.441 399.059 699.301 398.459 699.301 397.779C699.301 397.099 699.437 396.503 699.709 395.991C699.981 395.479 700.361 395.087 700.849 394.815C701.345 394.535 701.913 394.395 702.553 394.395C703.177 394.395 703.729 394.531 704.209 394.803C704.689 395.075 705.057 395.451 705.313 395.931C705.577 396.403 705.709 396.939 705.709 397.539ZM704.581 397.311C704.581 396.895 704.489 396.539 704.305 396.243C704.121 395.939 703.869 395.711 703.549 395.559C703.237 395.399 702.889 395.319 702.505 395.319C701.953 395.319 701.481 395.495 701.089 395.847C700.705 396.199 700.485 396.687 700.429 397.311H704.581ZM707.222 397.779C707.222 397.099 707.358 396.507 707.63 396.003C707.902 395.491 708.278 395.095 708.758 394.815C709.246 394.535 709.802 394.395 710.426 394.395C711.234 394.395 711.898 394.591 712.418 394.983C712.946 395.375 713.294 395.919 713.462 396.615H712.286C712.174 396.215 711.954 395.899 711.626 395.667C711.306 395.435 710.906 395.319 710.426 395.319C709.802 395.319 709.298 395.535 708.914 395.967C708.53 396.391 708.338 396.995 708.338 397.779C708.338 398.571 708.53 399.183 708.914 399.615C709.298 400.047 709.802 400.263 710.426 400.263C710.906 400.263 711.306 400.151 711.626 399.927C711.946 399.703 712.166 399.383 712.286 398.967H713.462C713.286 399.639 712.934 400.179 712.406 400.587C711.878 400.987 711.218 401.187 710.426 401.187C709.802 401.187 709.246 401.047 708.758 400.767C708.278 400.487 707.902 400.091 707.63 399.579C707.358 399.067 707.222 398.467 707.222 397.779ZM718.267 401.187C717.651 401.187 717.091 401.047 716.587 400.767C716.091 400.487 715.699 400.091 715.411 399.579C715.131 399.059 714.991 398.459 714.991 397.779C714.991 397.107 715.135 396.515 715.423 396.003C715.719 395.483 716.119 395.087 716.623 394.815C717.127 394.535 717.691 394.395 718.315 394.395C718.939 394.395 719.503 394.535 720.007 394.815C720.511 395.087 720.907 395.479 721.195 395.991C721.491 396.503 721.639 397.099 721.639 397.779C721.639 398.459 721.487 399.059 721.183 399.579C720.887 400.091 720.483 400.487 719.971 400.767C719.459 401.047 718.891 401.187 718.267 401.187ZM718.267 400.227C718.659 400.227 719.027 400.135 719.371 399.951C719.715 399.767 719.991 399.491 720.199 399.123C720.415 398.755 720.523 398.307 720.523 397.779C720.523 397.251 720.419 396.803 720.211 396.435C720.003 396.067 719.731 395.795 719.395 395.619C719.059 395.435 718.695 395.343 718.303 395.343C717.903 395.343 717.535 395.435 717.199 395.619C716.871 395.795 716.607 396.067 716.407 396.435C716.207 396.803 716.107 397.251 716.107 397.779C716.107 398.315 716.203 398.767 716.395 399.135C716.595 399.503 716.859 399.779 717.187 399.963C717.515 400.139 717.875 400.227 718.267 400.227ZM726.003 400.071L728.043 394.503H729.207L726.627 401.079H725.355L722.775 394.503H723.951L726.003 400.071ZM736.761 397.539C736.761 397.747 736.749 397.967 736.725 398.199H731.469C731.509 398.847 731.729 399.355 732.129 399.723C732.537 400.083 733.029 400.263 733.605 400.263C734.077 400.263 734.469 400.155 734.781 399.939C735.101 399.715 735.325 399.419 735.453 399.051H736.629C736.453 399.683 736.101 400.199 735.573 400.599C735.045 400.991 734.389 401.187 733.605 401.187C732.981 401.187 732.421 401.047 731.925 400.767C731.437 400.487 731.053 400.091 730.773 399.579C730.493 399.059 730.353 398.459 730.353 397.779C730.353 397.099 730.489 396.503 730.761 395.991C731.033 395.479 731.413 395.087 731.901 394.815C732.397 394.535 732.965 394.395 733.605 394.395C734.229 394.395 734.781 394.531 735.261 394.803C735.741 395.075 736.109 395.451 736.365 395.931C736.629 396.403 736.761 396.939 736.761 397.539ZM735.633 397.311C735.633 396.895 735.541 396.539 735.357 396.243C735.173 395.939 734.921 395.711 734.601 395.559C734.289 395.399 733.941 395.319 733.557 395.319C733.005 395.319 732.533 395.495 732.141 395.847C731.757 396.199 731.537 396.687 731.481 397.311H735.633ZM739.775 395.571C739.967 395.195 740.239 394.903 740.591 394.695C740.951 394.487 741.387 394.383 741.899 394.383V395.511H741.611C740.387 395.511 739.775 396.175 739.775 397.503V401.079H738.683V394.503H739.775V395.571ZM749.639 397.539C749.639 397.747 749.627 397.967 749.603 398.199H744.347C744.387 398.847 744.607 399.355 745.007 399.723C745.415 400.083 745.907 400.263 746.483 400.263C746.955 400.263 747.347 400.155 747.659 399.939C747.979 399.715 748.203 399.419 748.331 399.051H749.507C749.331 399.683 748.979 400.199 748.451 400.599C747.923 400.991 747.267 401.187 746.483 401.187C745.859 401.187 745.299 401.047 744.803 400.767C744.315 400.487 743.931 400.091 743.651 399.579C743.371 399.059 743.231 398.459 743.231 397.779C743.231 397.099 743.367 396.503 743.639 395.991C743.911 395.479 744.291 395.087 744.779 394.815C745.275 394.535 745.843 394.395 746.483 394.395C747.107 394.395 747.659 394.531 748.139 394.803C748.619 395.075 748.987 395.451 749.243 395.931C749.507 396.403 749.639 396.939 749.639 397.539ZM748.511 397.311C748.511 396.895 748.419 396.539 748.235 396.243C748.051 395.939 747.799 395.711 747.479 395.559C747.167 395.399 746.819 395.319 746.435 395.319C745.883 395.319 745.411 395.495 745.019 395.847C744.635 396.199 744.415 396.687 744.359 397.311H748.511ZM751.153 397.767C751.153 397.095 751.289 396.507 751.561 396.003C751.833 395.491 752.205 395.095 752.677 394.815C753.157 394.535 753.693 394.395 754.285 394.395C754.797 394.395 755.273 394.515 755.713 394.755C756.153 394.987 756.489 395.295 756.721 395.679V392.199H757.825V401.079H756.721V399.843C756.505 400.235 756.185 400.559 755.761 400.815C755.337 401.063 754.841 401.187 754.273 401.187C753.689 401.187 753.157 401.043 752.677 400.755C752.205 400.467 751.833 400.063 751.561 399.543C751.289 399.023 751.153 398.431 751.153 397.767ZM756.721 397.779C756.721 397.283 756.621 396.851 756.421 396.483C756.221 396.115 755.949 395.835 755.605 395.643C755.269 395.443 754.897 395.343 754.489 395.343C754.081 395.343 753.709 395.439 753.373 395.631C753.037 395.823 752.769 396.103 752.569 396.471C752.369 396.839 752.269 397.271 752.269 397.767C752.269 398.271 752.369 398.711 752.569 399.087C752.769 399.455 753.037 399.739 753.373 399.939C753.709 400.131 754.081 400.227 754.489 400.227C754.897 400.227 755.269 400.131 755.605 399.939C755.949 399.739 756.221 399.455 756.421 399.087C756.621 398.711 756.721 398.275 756.721 397.779Z" fill="#121212"/>
<path d="M323.962 497C323.962 494.791 325.753 493 327.962 493C330.172 493 331.962 494.791 331.962 497V575.616C331.962 577.825 330.172 579.616 327.962 579.616C325.753 579.616 323.962 577.825 323.962 575.616V497Z" fill="#020024"/>
<path d="M337.962 463.616C337.962 461.407 339.753 459.616 341.962 459.616C344.172 459.616 345.962 461.407 345.962 463.616V575.616C345.962 577.825 344.172 579.616 341.962 579.616C339.753 579.616 337.962 577.825 337.962 575.616V463.616Z" fill="#00C6C3"/>
<path d="M369.962 487.384C369.962 485.175 371.753 483.384 373.962 483.384C376.172 483.384 377.962 485.175 377.962 487.384V575.616C377.962 577.825 376.172 579.616 373.962 579.616C371.753 579.616 369.962 577.825 369.962 575.616V487.384Z" fill="#020024"/>
<path d="M383.962 482.384C383.962 480.175 385.753 478.384 387.962 478.384C390.172 478.384 391.962 480.175 391.962 482.384V575.616C391.962 577.825 390.172 579.616 387.962 579.616C385.753 579.616 383.962 577.825 383.962 575.616V482.384Z" fill="#00C6C3"/>
<path d="M415.962 469.884C415.962 467.675 417.753 465.884 419.962 465.884C422.172 465.884 423.962 467.675 423.962 469.884V575.616C423.962 577.825 422.172 579.616 419.962 579.616C417.753 579.616 415.962 577.825 415.962 575.616V469.884Z" fill="#020024"/>
<path d="M429.962 497C429.962 494.791 431.753 493 433.962 493C436.172 493 437.962 494.791 437.962 497V575.616C437.962 577.825 436.172 579.616 433.962 579.616C431.753 579.616 429.962 577.825 429.962 575.616V497Z" fill="#00C6C3"/>
<path d="M461.962 452C461.962 449.791 463.753 448 465.962 448C468.172 448 469.962 449.791 469.962 452V575.616C469.962 577.825 468.172 579.616 465.962 579.616C463.753 579.616 461.962 577.825 461.962 575.616V452Z" fill="#020024"/>
<path d="M475.962 536.884C475.962 534.675 477.753 532.884 479.962 532.884C482.172 532.884 483.962 534.675 483.962 536.884V575.616C483.962 577.825 482.172 579.616 479.962 579.616C477.753 579.616 475.962 577.825 475.962 575.616V536.884Z" fill="#00C6C3"/>
<path d="M507.962 416.384C507.962 414.175 509.753 412.384 511.962 412.384C514.172 412.384 515.962 414.175 515.962 416.384V575.616C515.962 577.825 514.172 579.616 511.962 579.616C509.753 579.616 507.962 577.825 507.962 575.616V416.384Z" fill="#020024"/>
<path d="M521.962 442.384C521.962 440.175 523.753 438.384 525.962 438.384C528.172 438.384 529.962 440.175 529.962 442.384V575.616C529.962 577.825 528.172 579.616 525.962 579.616C523.753 579.616 521.962 577.825 521.962 575.616V442.384Z" fill="#00C6C3"/>
<path d="M553.962 461C553.962 458.791 555.753 457 557.962 457C560.172 457 561.962 458.791 561.962 461V575.616C561.962 577.825 560.172 579.616 557.962 579.616C555.753 579.616 553.962 577.825 553.962 575.616V461Z" fill="#020024"/>
<path d="M567.962 474C567.962 471.791 569.753 470 571.962 470C574.172 470 575.962 471.791 575.962 474V575.616C575.962 577.825 574.172 579.616 571.962 579.616C569.753 579.616 567.962 577.825 567.962 575.616V474Z" fill="#00C6C3"/>
<path d="M599.962 431.08C599.962 428.871 601.753 427.08 603.962 427.08C606.172 427.08 607.962 428.871 607.962 431.08V575.616C607.962 577.825 606.172 579.616 603.962 579.616C601.753 579.616 599.962 577.825 599.962 575.616V431.08Z" fill="#020024"/>
<path d="M613.962 488.08C613.962 485.871 615.753 484.08 617.962 484.08C620.172 484.08 621.962 485.871 621.962 488.08V575.616C621.962 577.825 620.172 579.616 617.962 579.616C615.753 579.616 613.962 577.825 613.962 575.616V488.08Z" fill="#00C6C3"/>
<path d="M645.962 511.08C645.962 508.871 647.753 507.08 649.962 507.08C652.172 507.08 653.962 508.871 653.962 511.08V575.616C653.962 577.825 652.172 579.616 649.962 579.616C647.753 579.616 645.962 577.825 645.962 575.616V511.08Z" fill="#020024"/>
<path d="M659.962 461.08C659.962 458.871 661.753 457.08 663.962 457.08C666.172 457.08 667.962 458.871 667.962 461.08V575.616C667.962 577.825 666.172 579.616 663.962 579.616C661.753 579.616 659.962 577.825 659.962 575.616V461.08Z" fill="#00C6C3"/>
<path d="M691.962 445.08C691.962 442.871 693.753 441.08 695.962 441.08C698.172 441.08 699.962 442.871 699.962 445.08V575.616C699.962 577.825 698.172 579.616 695.962 579.616C693.753 579.616 691.962 577.825 691.962 575.616V445.08Z" fill="#020024"/>
<path d="M705.962 492.08C705.962 489.871 707.753 488.08 709.962 488.08C712.172 488.08 713.962 489.871 713.962 492.08V575.616C713.962 577.825 712.172 579.616 709.962 579.616C707.753 579.616 705.962 577.825 705.962 575.616V492.08Z" fill="#00C6C3"/>
<path d="M737.962 445.08C737.962 442.871 739.753 441.08 741.962 441.08C744.172 441.08 745.962 442.871 745.962 445.08V575.616C745.962 577.825 744.172 579.616 741.962 579.616C739.753 579.616 737.962 577.825 737.962 575.616V445.08Z" fill="#020024"/>
<path d="M751.962 523.08C751.962 520.871 753.753 519.08 755.962 519.08C758.172 519.08 759.962 520.871 759.962 523.08V575.616C759.962 577.825 758.172 579.616 755.962 579.616C753.753 579.616 751.962 577.825 751.962 575.616V523.08Z" fill="#00C6C3"/>
</g>
</g>
<g filter="url(#filter1_ddii_434_4405)">
<g clip-path="url(#clip1_434_4405)">
<rect x="125.33" y="422" width="221" height="228" rx="20" fill="white"/>
<path d="M293.207 567.831C294.322 569.057 296.225 569.15 297.406 567.988C309.931 555.667 317.892 539.407 319.91 521.893C321.928 504.379 317.874 486.734 308.479 471.887C307.593 470.487 305.72 470.146 304.355 471.085L303.113 471.941C301.749 472.88 301.411 474.745 302.291 476.149C310.659 489.497 314.262 505.323 312.452 521.033C310.641 536.743 303.534 551.336 292.349 562.431C291.172 563.598 291.078 565.49 292.193 566.716L293.207 567.831Z" fill="#020024"/>
<path d="M163.076 497.749C161.448 497.443 159.874 498.514 159.631 500.153C157.791 512.591 159.022 525.306 163.236 537.184C167.451 549.062 174.51 559.709 183.778 568.205C185 569.325 186.897 569.164 187.968 567.9L188.943 566.75C190.014 565.486 189.853 563.598 188.636 562.473C180.378 554.838 174.083 545.301 170.312 534.673C166.541 524.045 165.416 512.674 167.016 501.541C167.251 499.901 166.186 498.333 164.558 498.027L163.076 497.749Z" fill="#595E60"/>
<path d="M299.604 468.522C300.87 467.454 301.035 465.556 299.918 464.333C288.409 451.723 273.033 443.292 256.213 440.37C254.581 440.086 253.069 441.245 252.849 442.887L252.649 444.381C252.429 446.023 253.584 447.526 255.215 447.817C270.188 450.483 283.876 457.989 294.175 469.178C295.297 470.397 297.185 470.563 298.452 469.494L299.604 468.522Z" fill="#00C6C3"/>
<path d="M248.654 442.165C248.945 440.534 247.858 438.97 246.217 438.743C228.544 436.303 210.535 440.071 195.291 449.459C180.048 458.846 168.577 473.232 162.802 490.111C162.266 491.679 163.173 493.353 164.76 493.828L166.205 494.261C167.792 494.735 169.458 493.831 170.001 492.265C175.243 477.15 185.553 464.272 199.228 455.851C212.903 447.43 229.043 444.019 244.9 446.141C246.542 446.36 248.1 445.28 248.39 443.649L248.654 442.165Z" fill="#A7AFAC"/>
<mask id="path-62-inside-1_434_4405" fill="white">
<path d="M192.76 560.034C184.52 551.046 179.065 539.86 177.059 527.832C175.052 515.805 176.578 503.454 181.454 492.278C186.329 481.101 194.343 471.58 204.524 464.869C214.704 458.158 226.614 454.546 238.807 454.471C251 454.396 262.953 457.862 273.216 464.447C283.478 471.033 291.608 480.455 296.62 491.571C301.632 502.686 303.311 515.018 301.452 527.069C299.593 539.12 294.276 550.372 286.147 559.461L239.194 517.464L192.76 560.034Z"/>
</mask>
<path d="M192.76 560.034C184.52 551.046 179.065 539.86 177.059 527.832C175.052 515.805 176.578 503.454 181.454 492.278C186.329 481.101 194.343 471.58 204.524 464.869C214.704 458.158 226.614 454.546 238.807 454.471C251 454.396 262.953 457.862 273.216 464.447C283.478 471.033 291.608 480.455 296.62 491.571C301.632 502.686 303.311 515.018 301.452 527.069C299.593 539.12 294.276 550.372 286.147 559.461L239.194 517.464L192.76 560.034Z" stroke="#909090" stroke-opacity="0.5" stroke-width="2" stroke-dasharray="10 10" mask="url(#path-62-inside-1_434_4405)"/>
<g filter="url(#filter2_ddddii_434_4405)">
<circle cx="239.194" cy="517.464" r="50.1694" transform="rotate(2.48627 239.194 517.464)" fill="white"/>
</g>
<path d="M229.266 504.895L229.266 505.783L226.986 505.783L226.986 513.259L225.894 513.259L225.894 505.783L223.602 505.783L223.602 504.895L229.266 504.895ZM233.958 513.367C233.342 513.367 232.782 513.227 232.278 512.947C231.782 512.667 231.39 512.271 231.102 511.759C230.822 511.239 230.682 510.639 230.682 509.959C230.682 509.287 230.826 508.695 231.114 508.183C231.41 507.663 231.81 507.267 232.314 506.995C232.818 506.715 233.382 506.575 234.006 506.575C234.63 506.575 235.194 506.715 235.698 506.995C236.202 507.267 236.598 507.659 236.886 508.171C237.182 508.683 237.33 509.279 237.33 509.959C237.33 510.639 237.178 511.239 236.874 511.759C236.578 512.271 236.174 512.667 235.662 512.947C235.15 513.227 234.582 513.367 233.958 513.367ZM233.958 512.407C234.35 512.407 234.718 512.315 235.062 512.131C235.406 511.947 235.682 511.671 235.89 511.303C236.106 510.935 236.214 510.487 236.214 509.959C236.214 509.431 236.11 508.983 235.902 508.615C235.694 508.247 235.422 507.975 235.086 507.799C234.75 507.615 234.386 507.523 233.994 507.523C233.594 507.523 233.226 507.615 232.89 507.799C232.562 507.975 232.298 508.247 232.098 508.615C231.898 508.983 231.798 509.431 231.798 509.959C231.798 510.495 231.894 510.947 232.086 511.315C232.286 511.683 232.55 511.959 232.878 512.143C233.206 512.319 233.566 512.407 233.958 512.407ZM240.578 507.583L240.578 511.459C240.578 511.779 240.646 512.007 240.782 512.143C240.918 512.271 241.154 512.335 241.49 512.335L242.294 512.335L242.294 513.259L241.31 513.259C240.702 513.259 240.246 513.119 239.942 512.839C239.638 512.559 239.486 512.099 239.486 511.459L239.486 507.583L238.634 507.583L238.634 506.683L239.486 506.683L239.486 505.027L240.578 505.027L240.578 506.683L242.294 506.683L242.294 507.583L240.578 507.583ZM243.689 509.947C243.689 509.275 243.825 508.687 244.097 508.183C244.369 507.671 244.741 507.275 245.213 506.995C245.693 506.715 246.225 506.575 246.809 506.575C247.385 506.575 247.885 506.699 248.309 506.947C248.733 507.195 249.049 507.507 249.257 507.883L249.257 506.683L250.361 506.683L250.361 513.259L249.257 513.259L249.257 512.035C249.041 512.419 248.717 512.739 248.285 512.995C247.861 513.243 247.365 513.367 246.797 513.367C246.213 513.367 245.685 513.223 245.213 512.935C244.741 512.647 244.369 512.243 244.097 511.723C243.825 511.203 243.689 510.611 243.689 509.947ZM249.257 509.959C249.257 509.463 249.157 509.031 248.957 508.663C248.757 508.295 248.485 508.015 248.141 507.823C247.805 507.623 247.433 507.523 247.025 507.523C246.617 507.523 246.245 507.619 245.909 507.811C245.573 508.003 245.305 508.283 245.105 508.651C244.905 509.019 244.805 509.451 244.805 509.947C244.805 510.451 244.905 510.891 245.105 511.267C245.305 511.635 245.573 511.919 245.909 512.119C246.245 512.311 246.617 512.407 247.025 512.407C247.433 512.407 247.805 512.311 248.141 512.119C248.485 511.919 248.757 511.635 248.957 511.267C249.157 510.891 249.257 510.455 249.257 509.959ZM253.778 504.379L253.778 513.259L252.686 513.259L252.686 504.379L253.778 504.379Z" fill="#121212" fill-opacity="0.6"/>
<path d="M217.841 534.445C217.841 534.93 217.715 535.388 217.463 535.817C217.22 536.237 216.856 536.587 216.371 536.867C215.895 537.138 215.33 537.296 214.677 537.343L214.677 538.477L213.781 538.477L213.781 537.329C212.847 537.245 212.096 536.965 211.527 536.489C210.957 536.004 210.663 535.35 210.645 534.529L212.745 534.529C212.801 535.201 213.146 535.607 213.781 535.747L213.781 533.073C213.109 532.905 212.567 532.737 212.157 532.569C211.746 532.401 211.391 532.13 211.093 531.757C210.794 531.384 210.645 530.875 210.645 530.231C210.645 529.419 210.934 528.756 211.513 528.243C212.101 527.73 212.857 527.436 213.781 527.361L213.781 526.227L214.677 526.227L214.677 527.361C215.573 527.436 216.287 527.706 216.819 528.173C217.36 528.64 217.663 529.284 217.729 530.105L215.615 530.105C215.587 529.834 215.489 529.601 215.321 529.405C215.162 529.2 214.947 529.055 214.677 528.971L214.677 531.617C215.377 531.794 215.927 531.967 216.329 532.135C216.739 532.294 217.094 532.56 217.393 532.933C217.691 533.297 217.841 533.801 217.841 534.445ZM212.689 530.133C212.689 530.441 212.782 530.693 212.969 530.889C213.155 531.076 213.426 531.23 213.781 531.351L213.781 528.929C213.445 528.976 213.179 529.102 212.983 529.307C212.787 529.512 212.689 529.788 212.689 530.133ZM214.677 535.775C215.031 535.71 215.307 535.565 215.503 535.341C215.708 535.117 215.811 534.846 215.811 534.529C215.811 534.221 215.713 533.974 215.517 533.787C215.321 533.6 215.041 533.446 214.677 533.325L214.677 535.775ZM220.701 535.047C221.597 534.3 222.311 533.68 222.843 533.185C223.375 532.681 223.818 532.158 224.173 531.617C224.527 531.076 224.705 530.544 224.705 530.021C224.705 529.545 224.593 529.172 224.369 528.901C224.145 528.63 223.799 528.495 223.333 528.495C222.866 528.495 222.507 528.654 222.255 528.971C222.003 529.279 221.872 529.704 221.863 530.245L219.959 530.245C219.996 529.125 220.327 528.276 220.953 527.697C221.587 527.118 222.39 526.829 223.361 526.829C224.425 526.829 225.241 527.114 225.811 527.683C226.38 528.243 226.665 528.985 226.665 529.909C226.665 530.637 226.469 531.332 226.077 531.995C225.685 532.658 225.237 533.236 224.733 533.731C224.229 534.216 223.571 534.804 222.759 535.495L226.889 535.495L226.889 537.119L219.973 537.119L219.973 535.663L220.701 535.047ZM233.696 529.601C233.603 529.209 233.439 528.915 233.206 528.719C232.982 528.523 232.655 528.425 232.226 528.425C231.582 528.425 231.106 528.686 230.798 529.209C230.499 529.722 230.345 530.562 230.336 531.729C230.56 531.356 230.887 531.066 231.316 530.861C231.745 530.646 232.212 530.539 232.716 530.539C233.323 530.539 233.859 530.67 234.326 530.931C234.793 531.192 235.157 531.575 235.418 532.079C235.679 532.574 235.81 533.171 235.81 533.871C235.81 534.534 235.675 535.126 235.404 535.649C235.143 536.162 234.755 536.564 234.242 536.853C233.729 537.142 233.117 537.287 232.408 537.287C231.437 537.287 230.672 537.072 230.112 536.643C229.561 536.214 229.174 535.616 228.95 534.851C228.735 534.076 228.628 533.124 228.628 531.995C228.628 530.287 228.922 528.999 229.51 528.131C230.098 527.254 231.027 526.815 232.296 526.815C233.276 526.815 234.037 527.081 234.578 527.613C235.119 528.145 235.432 528.808 235.516 529.601L233.696 529.601ZM232.268 532.149C231.773 532.149 231.358 532.294 231.022 532.583C230.686 532.872 230.518 533.292 230.518 533.843C230.518 534.394 230.672 534.828 230.98 535.145C231.297 535.462 231.741 535.621 232.31 535.621C232.814 535.621 233.211 535.467 233.5 535.159C233.799 534.851 233.948 534.436 233.948 533.913C233.948 533.372 233.803 532.942 233.514 532.625C233.234 532.308 232.819 532.149 232.268 532.149ZM238.731 537.357C238.376 537.357 238.082 537.25 237.849 537.035C237.625 536.811 237.513 536.536 237.513 536.209C237.513 535.882 237.625 535.612 237.849 535.397C238.082 535.173 238.376 535.061 238.731 535.061C239.076 535.061 239.361 535.173 239.585 535.397C239.809 535.612 239.921 535.882 239.921 536.209C239.921 536.536 239.809 536.811 239.585 537.035C239.361 537.25 239.076 537.357 238.731 537.357ZM248.416 528.747L243.88 528.747L243.88 531.141C244.076 530.898 244.356 530.702 244.72 530.553C245.084 530.394 245.471 530.315 245.882 530.315C246.628 530.315 247.24 530.478 247.716 530.805C248.192 531.132 248.537 531.552 248.752 532.065C248.966 532.569 249.074 533.11 249.074 533.689C249.074 534.762 248.766 535.626 248.15 536.279C247.543 536.932 246.675 537.259 245.546 537.259C244.482 537.259 243.632 536.993 242.998 536.461C242.363 535.929 242.004 535.234 241.92 534.375L243.824 534.375C243.908 534.748 244.094 535.047 244.384 535.271C244.682 535.495 245.06 535.607 245.518 535.607C246.068 535.607 246.484 535.434 246.764 535.089C247.044 534.744 247.184 534.286 247.184 533.717C247.184 533.138 247.039 532.7 246.75 532.401C246.47 532.093 246.054 531.939 245.504 531.939C245.112 531.939 244.785 532.037 244.524 532.233C244.262 532.429 244.076 532.69 243.964 533.017L242.088 533.017L242.088 527.025L248.416 527.025L248.416 528.747ZM250.845 532.023C250.845 530.408 251.135 529.144 251.713 528.229C252.301 527.314 253.272 526.857 254.625 526.857C255.979 526.857 256.945 527.314 257.523 528.229C258.111 529.144 258.405 530.408 258.405 532.023C258.405 533.647 258.111 534.921 257.523 535.845C256.945 536.769 255.979 537.231 254.625 537.231C253.272 537.231 252.301 536.769 251.713 535.845C251.135 534.921 250.845 533.647 250.845 532.023ZM256.473 532.023C256.473 531.332 256.427 530.754 256.333 530.287C256.249 529.811 256.072 529.424 255.801 529.125C255.54 528.826 255.148 528.677 254.625 528.677C254.103 528.677 253.706 528.826 253.435 529.125C253.174 529.424 252.997 529.811 252.903 530.287C252.819 530.754 252.777 531.332 252.777 532.023C252.777 532.732 252.819 533.33 252.903 533.815C252.987 534.291 253.165 534.678 253.435 534.977C253.706 535.266 254.103 535.411 254.625 535.411C255.148 535.411 255.545 535.266 255.815 534.977C256.086 534.678 256.263 534.291 256.347 533.815C256.431 533.33 256.473 532.732 256.473 532.023ZM260.176 532.023C260.176 530.408 260.466 529.144 261.044 528.229C261.632 527.314 262.603 526.857 263.956 526.857C265.31 526.857 266.276 527.314 266.854 528.229C267.442 529.144 267.736 530.408 267.736 532.023C267.736 533.647 267.442 534.921 266.854 535.845C266.276 536.769 265.31 537.231 263.956 537.231C262.603 537.231 261.632 536.769 261.044 535.845C260.466 534.921 260.176 533.647 260.176 532.023ZM265.804 532.023C265.804 531.332 265.758 530.754 265.664 530.287C265.58 529.811 265.403 529.424 265.132 529.125C264.871 528.826 264.479 528.677 263.956 528.677C263.434 528.677 263.037 528.826 262.766 529.125C262.505 529.424 262.328 529.811 262.234 530.287C262.15 530.754 262.108 531.332 262.108 532.023C262.108 532.732 262.15 533.33 262.234 533.815C262.318 534.291 262.496 534.678 262.766 534.977C263.037 535.266 263.434 535.411 263.956 535.411C264.479 535.411 264.876 535.266 265.146 534.977C265.417 534.678 265.594 534.291 265.678 533.815C265.762 533.33 265.804 532.732 265.804 532.023Z" fill="black"/>
<rect x="136.392" y="593.35" width="18.9258" height="16" rx="5" fill="#121212" fill-opacity="0.05"/>
<rect x="163.318" y="593.35" width="171.949" height="16" rx="5" fill="#121212" fill-opacity="0.05"/>
<rect x="136.392" y="618.35" width="18.9258" height="16" rx="5" fill="#121212" fill-opacity="0.05"/>
<rect x="163.318" y="618.35" width="171.949" height="16" rx="5" fill="#121212" fill-opacity="0.05"/>
</g>
</g>
<defs>
<filter id="filter0_ddddii_434_4405" x="0" y="0" width="990" height="800" filterUnits="userSpaceOnUse" color-interpolation-filters="sRGB">
<feFlood flood-opacity="0" result="BackgroundImageFix"/>
<feColorMatrix in="SourceAlpha" type="matrix" values="0 0 0 0 0 0 0 0 0 0 0 0 0 0 0 0 0 0 127 0" result="hardAlpha"/>
<feOffset dx="59" dy="59"/>
<feGaussianBlur stdDeviation="74"/>
<feColorMatrix type="matrix" values="0 0 0 0 0.960784 0 0 0 0 0.960784 0 0 0 0 0.960784 0 0 0 0.9 0"/>
<feBlend mode="normal" in2="BackgroundImageFix" result="effect1_dropShadow_434_4405"/>
<feColorMatrix in="SourceAlpha" type="matrix" values="0 0 0 0 0 0 0 0 0 0 0 0 0 0 0 0 0 0 127 0" result="hardAlpha"/>
<feOffset dx="-59" dy="-59"/>
<feGaussianBlur stdDeviation="59"/>
<feColorMatrix type="matrix" values="0 0 0 0 1 0 0 0 0 1 0 0 0 0 1 0 0 0 0.9 0"/>
<feBlend mode="normal" in2="effect1_dropShadow_434_4405" result="effect2_dropShadow_434_4405"/>
<feColorMatrix in="SourceAlpha" type="matrix" values="0 0 0 0 0 0 0 0 0 0 0 0 0 0 0 0 0 0 127 0" result="hardAlpha"/>
<feOffset dx="59" dy="-59"/>
<feGaussianBlur stdDeviation="59"/>
<feColorMatrix type="matrix" values="0 0 0 0 0.960784 0 0 0 0 0.960784 0 0 0 0 0.960784 0 0 0 0.2 0"/>
<feBlend mode="normal" in2="effect2_dropShadow_434_4405" result="effect3_dropShadow_434_4405"/>
<feColorMatrix in="SourceAlpha" type="matrix" values="0 0 0 0 0 0 0 0 0 0 0 0 0 0 0 0 0 0 127 0" result="hardAlpha"/>
<feOffset dx="-59" dy="59"/>
<feGaussianBlur stdDeviation="59"/>
<feColorMatrix type="matrix" values="0 0 0 0 0.960784 0 0 0 0 0.960784 0 0 0 0 0.960784 0 0 0 0.2 0"/>
<feBlend mode="normal" in2="effect3_dropShadow_434_4405" result="effect4_dropShadow_434_4405"/>
<feBlend mode="normal" in="SourceGraphic" in2="effect4_dropShadow_434_4405" result="shape"/>
<feColorMatrix in="SourceAlpha" type="matrix" values="0 0 0 0 0 0 0 0 0 0 0 0 0 0 0 0 0 0 127 0" result="hardAlpha"/>
<feOffset dx="-2" dy="-2"/>
<feGaussianBlur stdDeviation="1.5"/>
<feComposite in2="hardAlpha" operator="arithmetic" k2="-1" k3="1"/>
<feColorMatrix type="matrix" values="0 0 0 0 0.960784 0 0 0 0 0.960784 0 0 0 0 0.960784 0 0 0 0.5 0"/>
<feBlend mode="normal" in2="shape" result="effect5_innerShadow_434_4405"/>
<feColorMatrix in="SourceAlpha" type="matrix" values="0 0 0 0 0 0 0 0 0 0 0 0 0 0 0 0 0 0 127 0" result="hardAlpha"/>
<feOffset dx="2" dy="2"/>
<feGaussianBlur stdDeviation="1.5"/>
<feComposite in2="hardAlpha" operator="arithmetic" k2="-1" k3="1"/>
<feColorMatrix type="matrix" values="0 0 0 0 1 0 0 0 0 1 0 0 0 0 1 0 0 0 0.3 0"/>
<feBlend mode="normal" in2="effect5_innerShadow_434_4405" result="effect6_innerShadow_434_4405"/>
</filter>
<filter id="filter1_ddii_434_4405" x="110.33" y="414" width="254" height="254" filterUnits="userSpaceOnUse" color-interpolation-filters="sRGB">
<feFlood flood-opacity="0" result="BackgroundImageFix"/>
<feColorMatrix in="SourceAlpha" type="matrix" values="0 0 0 0 0 0 0 0 0 0 0 0 0 0 0 0 0 0 127 0" result="hardAlpha"/>
<feOffset dx="5" dy="5"/>
<feGaussianBlur stdDeviation="6.5"/>
<feColorMatrix type="matrix" values="0 0 0 0 0.901961 0 0 0 0 0.901961 0 0 0 0 0.901961 0 0 0 0.9 0"/>
<feBlend mode="normal" in2="BackgroundImageFix" result="effect1_dropShadow_434_4405"/>
<feColorMatrix in="SourceAlpha" type="matrix" values="0 0 0 0 0 0 0 0 0 0 0 0 0 0 0 0 0 0 127 0" result="hardAlpha"/>
<feOffset dx="-5" dy="5"/>
<feGaussianBlur stdDeviation="5"/>
<feColorMatrix type="matrix" values="0 0 0 0 0.901961 0 0 0 0 0.901961 0 0 0 0 0.901961 0 0 0 0.2 0"/>
<feBlend mode="normal" in2="effect1_dropShadow_434_4405" result="effect2_dropShadow_434_4405"/>
<feBlend mode="normal" in="SourceGraphic" in2="effect2_dropShadow_434_4405" result="shape"/>
<feColorMatrix in="SourceAlpha" type="matrix" values="0 0 0 0 0 0 0 0 0 0 0 0 0 0 0 0 0 0 127 0" result="hardAlpha"/>
<feOffset dx="-1" dy="-1"/>
<feGaussianBlur stdDeviation="1"/>
<feComposite in2="hardAlpha" operator="arithmetic" k2="-1" k3="1"/>
<feColorMatrix type="matrix" values="0 0 0 0 0.901961 0 0 0 0 0.901961 0 0 0 0 0.901961 0 0 0 0.5 0"/>
<feBlend mode="normal" in2="shape" result="effect3_innerShadow_434_4405"/>
<feColorMatrix in="SourceAlpha" type="matrix" values="0 0 0 0 0 0 0 0 0 0 0 0 0 0 0 0 0 0 127 0" result="hardAlpha"/>
<feOffset dx="1" dy="1"/>
<feGaussianBlur stdDeviation="1"/>
<feComposite in2="hardAlpha" operator="arithmetic" k2="-1" k3="1"/>
<feColorMatrix type="matrix" values="0 0 0 0 1 0 0 0 0 1 0 0 0 0 1 0 0 0 0.3 0"/>
<feBlend mode="normal" in2="effect3_innerShadow_434_4405" result="effect4_innerShadow_434_4405"/>
</filter>
<filter id="filter2_ddddii_434_4405" x="174.024" y="452.294" width="133.34" height="133.341" filterUnits="userSpaceOnUse" color-interpolation-filters="sRGB">
<feFlood flood-opacity="0" result="BackgroundImageFix"/>
<feColorMatrix in="SourceAlpha" type="matrix" values="0 0 0 0 0 0 0 0 0 0 0 0 0 0 0 0 0 0 127 0" result="hardAlpha"/>
<feOffset dx="5" dy="5"/>
<feGaussianBlur stdDeviation="6.5"/>
<feColorMatrix type="matrix" values="0 0 0 0 0.901961 0 0 0 0 0.901961 0 0 0 0 0.901961 0 0 0 0.9 0"/>
<feBlend mode="normal" in2="BackgroundImageFix" result="effect1_dropShadow_434_4405"/>
<feColorMatrix in="SourceAlpha" type="matrix" values="0 0 0 0 0 0 0 0 0 0 0 0 0 0 0 0 0 0 127 0" result="hardAlpha"/>
<feOffset dx="-5" dy="-5"/>
<feGaussianBlur stdDeviation="5"/>
<feColorMatrix type="matrix" values="0 0 0 0 1 0 0 0 0 1 0 0 0 0 1 0 0 0 0.9 0"/>
<feBlend mode="normal" in2="effect1_dropShadow_434_4405" result="effect2_dropShadow_434_4405"/>
<feColorMatrix in="SourceAlpha" type="matrix" values="0 0 0 0 0 0 0 0 0 0 0 0 0 0 0 0 0 0 127 0" result="hardAlpha"/>
<feOffset dx="5" dy="-5"/>
<feGaussianBlur stdDeviation="5"/>
<feColorMatrix type="matrix" values="0 0 0 0 0.901961 0 0 0 0 0.901961 0 0 0 0 0.901961 0 0 0 0.2 0"/>
<feBlend mode="normal" in2="effect2_dropShadow_434_4405" result="effect3_dropShadow_434_4405"/>
<feColorMatrix in="SourceAlpha" type="matrix" values="0 0 0 0 0 0 0 0 0 0 0 0 0 0 0 0 0 0 127 0" result="hardAlpha"/>
<feOffset dx="-5" dy="5"/>
<feGaussianBlur stdDeviation="5"/>
<feColorMatrix type="matrix" values="0 0 0 0 0.901961 0 0 0 0 0.901961 0 0 0 0 0.901961 0 0 0 0.2 0"/>
<feBlend mode="normal" in2="effect3_dropShadow_434_4405" result="effect4_dropShadow_434_4405"/>
<feBlend mode="normal" in="SourceGraphic" in2="effect4_dropShadow_434_4405" result="shape"/>
<feColorMatrix in="SourceAlpha" type="matrix" values="0 0 0 0 0 0 0 0 0 0 0 0 0 0 0 0 0 0 127 0" result="hardAlpha"/>
<feOffset dx="-1" dy="-1"/>
<feGaussianBlur stdDeviation="1"/>
<feComposite in2="hardAlpha" operator="arithmetic" k2="-1" k3="1"/>
<feColorMatrix type="matrix" values="0 0 0 0 0.901961 0 0 0 0 0.901961 0 0 0 0 0.901961 0 0 0 0.5 0"/>
<feBlend mode="normal" in2="shape" result="effect5_innerShadow_434_4405"/>
<feColorMatrix in="SourceAlpha" type="matrix" values="0 0 0 0 0 0 0 0 0 0 0 0 0 0 0 0 0 0 127 0" result="hardAlpha"/>
<feOffset dx="1" dy="1"/>
<feGaussianBlur stdDeviation="1"/>
<feComposite in2="hardAlpha" operator="arithmetic" k2="-1" k3="1"/>
<feColorMatrix type="matrix" values="0 0 0 0 1 0 0 0 0 1 0 0 0 0 1 0 0 0 0.3 0"/>
<feBlend mode="normal" in2="effect5_innerShadow_434_4405" result="effect6_innerShadow_434_4405"/>
</filter>
<clipPath id="clip0_434_4405">
<rect x="177" y="177" width="606" height="416" rx="40" fill="white"/>
</clipPath>
<clipPath id="clip1_434_4405">
<rect x="125.33" y="422" width="221" height="228" rx="20" fill="white"/>
</clipPath>
</defs>
</svg>
