<svg width="22" height="21" viewBox="0 0 22 21" fill="none" xmlns="http://www.w3.org/2000/svg">
<path d="M2.50488 14V2H0.504883V0H3.50488C4.05717 0 4.50488 0.44772 4.50488 1V13H16.9433L18.9433 5H6.50488V3H20.2241C20.7764 3 21.2241 3.44772 21.2241 4C21.2241 4.08176 21.2141 4.16322 21.1942 4.24254L18.6942 14.2425C18.583 14.6877 18.183 15 17.7241 15H3.50488C2.9526 15 2.50488 14.5523 2.50488 14ZM4.50488 21C3.40031 21 2.50488 20.1046 2.50488 19C2.50488 17.8954 3.40031 17 4.50488 17C5.60945 17 6.50488 17.8954 6.50488 19C6.50488 20.1046 5.60945 21 4.50488 21ZM16.5049 21C15.4003 21 14.5049 20.1046 14.5049 19C14.5049 17.8954 15.4003 17 16.5049 17C17.6095 17 18.5049 17.8954 18.5049 19C18.5049 20.1046 17.6095 21 16.5049 21Z" fill="#64748B"/>
</svg>
