<svg width="18" height="19" viewBox="0 0 18 19" fill="none" xmlns="http://www.w3.org/2000/svg">
<path d="M9.14599 1.72467C9.1881 1.67102 9.24184 1.62765 9.30317 1.59782C9.36449 1.56799 9.4318 1.55249 9.49999 1.55249C9.56819 1.55249 9.63549 1.56799 9.69682 1.59782C9.75815 1.62765 9.81189 1.67102 9.85399 1.72467L11.2107 3.44967C11.2658 3.51983 11.3405 3.57204 11.4253 3.59969C11.5101 3.62733 11.6012 3.62915 11.687 3.60492L13.7982 3.00642C13.8638 2.98774 13.9327 2.98419 13.9999 2.99605C14.067 3.00791 14.1306 3.03487 14.1857 3.07489C14.2409 3.1149 14.2863 3.16694 14.3184 3.22705C14.3506 3.28717 14.3686 3.3538 14.3712 3.42192L14.4537 5.61567C14.4572 5.70479 14.4871 5.79086 14.5396 5.86297C14.592 5.93508 14.6648 5.98997 14.7485 6.02067L16.8087 6.77817C16.8727 6.80163 16.9305 6.83931 16.9778 6.88837C17.0251 6.93742 17.0606 6.99657 17.0817 7.06135C17.1028 7.12613 17.1089 7.19485 17.0995 7.26234C17.0902 7.32982 17.0656 7.3943 17.0277 7.45092L15.8052 9.27417C15.7556 9.34828 15.7291 9.43547 15.7291 9.52467C15.7291 9.61387 15.7556 9.70106 15.8052 9.77517L17.0277 11.5984C17.0656 11.655 17.0902 11.7195 17.0995 11.787C17.1089 11.8545 17.1028 11.9232 17.0817 11.988C17.0606 12.0528 17.0251 12.1119 16.9778 12.161C16.9305 12.21 16.8727 12.2477 16.8087 12.2712L14.7485 13.0287C14.6649 13.0595 14.5923 13.1144 14.54 13.1865C14.4877 13.2586 14.4579 13.3446 14.4545 13.4337L14.3712 15.6274C14.3686 15.6955 14.3506 15.7622 14.3184 15.8223C14.2863 15.8824 14.2409 15.9344 14.1857 15.9745C14.1306 16.0145 14.067 16.0414 13.9999 16.0533C13.9327 16.0651 13.8638 16.0616 13.7982 16.0429L11.687 15.4444C11.6011 15.4199 11.5099 15.4216 11.425 15.4491C11.34 15.4766 11.2652 15.5288 11.21 15.5989L9.85474 17.3247C9.81264 17.3783 9.7589 17.4217 9.69757 17.4515C9.63624 17.4814 9.56894 17.4969 9.50074 17.4969C9.43255 17.4969 9.36524 17.4814 9.30392 17.4515C9.24259 17.4217 9.18885 17.3783 9.14674 17.3247L7.78999 15.5997C7.73493 15.5295 7.66026 15.4773 7.57547 15.4497C7.49067 15.422 7.39958 15.4202 7.31374 15.4444L5.20249 16.0429C5.13694 16.0616 5.06799 16.0651 5.00086 16.0533C4.93374 16.0414 4.87018 16.0145 4.815 15.9745C4.75981 15.9344 4.71444 15.8824 4.6823 15.8223C4.65017 15.7622 4.63211 15.6955 4.62949 15.6274L4.54699 13.4337C4.54353 13.3446 4.51366 13.2585 4.46118 13.1864C4.4087 13.1143 4.33598 13.0594 4.25224 13.0287L2.19199 12.2712C2.12803 12.2477 2.07024 12.21 2.02296 12.161C1.97568 12.1119 1.94016 12.0528 1.91907 11.988C1.89799 11.9232 1.89188 11.8545 1.90122 11.787C1.91056 11.7195 1.9351 11.655 1.97299 11.5984L3.19549 9.77517C3.24515 9.70106 3.27166 9.61387 3.27166 9.52467C3.27166 9.43547 3.24515 9.34828 3.19549 9.27417L1.97299 7.45092C1.9351 7.3943 1.91056 7.32982 1.90122 7.26234C1.89188 7.19485 1.89799 7.12613 1.91907 7.06135C1.94016 6.99657 1.97568 6.93742 2.02296 6.88837C2.07024 6.83931 2.12803 6.80163 2.19199 6.77817L4.25224 6.02067C4.33584 5.98985 4.4084 5.93491 4.46074 5.86281C4.51308 5.79071 4.54284 5.7047 4.54624 5.61567L4.62949 3.42192C4.63211 3.3538 4.65017 3.28717 4.6823 3.22705C4.71444 3.16694 4.75981 3.1149 4.815 3.07489C4.87018 3.03487 4.93374 3.00791 5.00086 2.99605C5.06799 2.98419 5.13694 2.98774 5.20249 3.00642L7.31374 3.60492C7.39958 3.62915 7.49067 3.62733 7.57547 3.59969C7.66026 3.57204 7.73493 3.51983 7.78999 3.44967L9.14749 1.72467H9.14599Z" stroke="#DA2721" strokeWidth="1.125"/>
<path d="M7.25 9.52466L8.75 11.0247L11.75 8.02466" stroke="#DA2721" strokeWidth="1.125" stroke-linecap="round" stroke-linejoin="round"/>
</svg>
