<svg width="19" height="19" viewBox="0 0 19 19" fill="none" xmlns="http://www.w3.org/2000/svg">
<path d="M8.16499 2.02466H3.81499C3.56646 2.02466 3.36499 2.22613 3.36499 2.47466V5.32466C3.36499 5.57319 3.56646 5.77466 3.81499 5.77466H8.16499C8.41352 5.77466 8.61499 5.57319 8.61499 5.32466V2.47466C8.61499 2.22613 8.41352 2.02466 8.16499 2.02466Z" stroke="#DA2721" strokeWidth="1.125"/>
<path d="M12.29 13.2747H7.93999C7.69146 13.2747 7.48999 13.4761 7.48999 13.7247V16.5747C7.48999 16.8232 7.69146 17.0247 7.93999 17.0247H12.29C12.5385 17.0247 12.74 16.8232 12.74 16.5747V13.7247C12.74 13.4761 12.5385 13.2747 12.29 13.2747Z" stroke="#DA2721" strokeWidth="1.125"/>
<path d="M16.415 2.02466H12.065C11.8165 2.02466 11.615 2.22613 11.615 2.47466V5.32466C11.615 5.57319 11.8165 5.77466 12.065 5.77466H16.415C16.6635 5.77466 16.865 5.57319 16.865 5.32466V2.47466C16.865 2.22613 16.6635 2.02466 16.415 2.02466Z" stroke="#DA2721" strokeWidth="1.125"/>
<path d="M5.98999 5.77466V8.39966C5.98999 8.79748 6.14803 9.17901 6.42933 9.46032C6.71063 9.74162 7.09217 9.89966 7.48999 9.89966H12.74C13.1378 9.89966 13.5193 9.74162 13.8007 9.46032C14.082 9.17901 14.24 8.79748 14.24 8.39966V5.77466M10.115 9.89966V13.2747" stroke="#DA2721" strokeWidth="1.125"/>
</svg>
