<svg width="21" height="20" viewBox="0 0 21 20" fill="none" xmlns="http://www.w3.org/2000/svg">
<path d="M10.501 0C16.0238 0 20.501 4.47715 20.501 10C20.501 15.5228 16.0238 20 10.501 20C8.6671 20 6.94851 19.5064 5.47086 18.6447L0.505157 20L1.85712 15.0315C0.994937 13.5536 0.500977 11.8345 0.500977 10C0.500977 4.47715 4.97813 0 10.501 0ZM6.89232 5.30833C6.76293 5.31742 6.63607 5.34902 6.52057 5.40811C6.43392 5.45244 6.35348 5.51651 6.22709 5.63586C6.10774 5.74855 6.03857 5.84697 5.96569 5.94186C5.59599 6.4232 5.39729 7.01405 5.40098 7.62098C5.40299 8.1116 5.53043 8.5884 5.73169 9.0336C6.13982 9.9364 6.81288 10.8908 7.70194 11.7759C7.9155 11.9885 8.12473 12.2034 8.35034 12.402C9.4538 13.3736 10.7688 14.0742 12.1907 14.4482C12.1907 14.4482 12.7507 14.5342 12.7589 14.5347C12.9444 14.5447 13.1296 14.5313 13.3153 14.5218C13.6066 14.5068 13.891 14.428 14.1484 14.2909C14.3139 14.2028 14.3922 14.159 14.5311 14.0714C14.5311 14.0714 14.5737 14.0426 14.6559 13.9814C14.7909 13.8808 14.8743 13.81 14.9866 13.6934C15.0694 13.6074 15.1406 13.5058 15.1956 13.3913C15.2738 13.2281 15.3525 12.9166 15.3838 12.6579C15.4077 12.4603 15.4005 12.3523 15.3979 12.2854C15.3936 12.1778 15.3047 12.0671 15.2073 12.0201L14.6258 11.7587C14.6258 11.7587 13.7563 11.3803 13.2245 11.1377C13.1691 11.1124 13.1085 11.1007 13.0476 11.097C12.9142 11.0888 12.7647 11.1236 12.6696 11.2238C12.6646 11.2218 12.5984 11.279 11.8749 12.1555C11.835 12.2032 11.7415 12.3069 11.5798 12.2972C11.5554 12.2955 11.5311 12.292 11.5074 12.2858C11.4419 12.2685 11.3781 12.2457 11.3157 12.2193C11.192 12.1668 11.1486 12.1469 11.0641 12.1105C10.4868 11.8583 9.957 11.5209 9.4887 11.108C9.3631 10.9974 9.2463 10.8783 9.1259 10.7616C8.7057 10.3543 8.36169 9.9211 8.10577 9.4938C8.0918 9.4705 8.07027 9.4368 8.04708 9.3991C8.00521 9.331 7.95903 9.25 7.94455 9.1944C7.90738 9.0473 8.00599 8.9291 8.00599 8.9291C8.00599 8.9291 8.24939 8.663 8.36248 8.5183C8.47128 8.379 8.5652 8.2428 8.625 8.1457C8.7428 7.95633 8.7801 7.76062 8.7182 7.60963C8.43764 6.92565 8.14818 6.24536 7.84986 5.56894C7.79098 5.43545 7.61585 5.33846 7.45659 5.32007C7.40265 5.31384 7.34875 5.30758 7.29459 5.30402C7.16053 5.29748 7.0262 5.29892 6.89232 5.30833Z" fill="#149100"/>
</svg>
